<?xml version="1.0" encoding="UTF-8" standalone="no"?>
<!-- Created with Inkscape (http://www.inkscape.org/) -->

<svg
   xmlns:dc="http://purl.org/dc/elements/1.1/"
   xmlns:cc="http://creativecommons.org/ns#"
   xmlns:rdf="http://www.w3.org/1999/02/22-rdf-syntax-ns#"
   xmlns:svg="http://www.w3.org/2000/svg"
   xmlns="http://www.w3.org/2000/svg"
   xmlns:sodipodi="http://sodipodi.sourceforge.net/DTD/sodipodi-0.dtd"
   xmlns:inkscape="http://www.inkscape.org/namespaces/inkscape"
   width="1046.8125"
   height="620.72516"
   id="svg2"
   version="1.1"
   inkscape:version="0.48.1 "
   sodipodi:docname="acordeon.svg"
   inkscape:export-filename="C:\Documents and Settings\Familia hdez Jimenez\Escritorio\inskape\acordeon.png"
   inkscape:export-xdpi="90"
   inkscape:export-ydpi="90">
  <defs
     id="defs4" />
  <sodipodi:namedview
     id="base"
     pagecolor="#ffffff"
     bordercolor="#666666"
     borderopacity="1.0"
     inkscape:pageopacity="0.0"
     inkscape:pageshadow="2"
     inkscape:zoom="0.49497475"
     inkscape:cx="847.39748"
     inkscape:cy="348.34443"
     inkscape:document-units="px"
     inkscape:current-layer="layer1"
     showgrid="false"
     fit-margin-top="0"
     fit-margin-left="0"
     fit-margin-right="0"
     fit-margin-bottom="0"
     inkscape:window-width="1024"
     inkscape:window-height="712"
     inkscape:window-x="-4"
     inkscape:window-y="-4"
     inkscape:window-maximized="1" />
  <metadata
     id="metadata7">
    <rdf:RDF>
      <cc:Work
         rdf:about="">
        <dc:format>image/svg+xml</dc:format>
        <dc:type
           rdf:resource="http://purl.org/dc/dcmitype/StillImage" />
        <dc:title></dc:title>
      </cc:Work>
    </rdf:RDF>
  </metadata>
  <g
     inkscape:label="Capa 1"
     inkscape:groupmode="layer"
     id="layer1"
     transform="translate(207.54297,-468.49359)">
    <path
       style="fill:#0000ff;stroke:none"
       d=""
       id="path3210"
       inkscape:connector-curvature="0" />
    <g
       id="g3444">
      <g
         id="g3316">
        <path
           style="fill:#ffffff;stroke:#000000;stroke-width:1px;stroke-linecap:butt;stroke-linejoin:miter;stroke-opacity:1"
           d="m -10.101526,1023.0678 c 0,0 -25.399602,-187.89304 -22.223356,-272.74123 0.56176,-15.00648 33.3350343,-30.30457 33.3350343,-30.30457 0,0 72.2183657,-20.01112 109.0964777,-26.26397 6.6727,-1.13138 20.20305,-2.0203 20.20305,-2.0203 0,0 31.94188,-14.07106 48.48732,-12.12183 9.42286,1.11012 25.25381,13.13198 25.25381,13.13198 l 12.12184,-8.08122 15.15228,6.06091 7.07107,-5.05076 12.12183,6.06092 10.10153,-4.04061 11.11168,6.06091 9.09137,-7.07107 17.17259,7.07107 7.07107,-6.06091 7.07107,8.08122 9.09137,-8.08122 11.75418,6.0049 13.50489,-6.30077 4.03535,2.31617 13.13199,0 13.13198,7.07107 7.07107,-4.04061 11.11168,9.09137 7.07106,-5.05076 11.11168,7.07107 2.02031,-8.08122 c 0,0 65.41935,12.33996 95.96449,25.25381 38.79713,16.40262 79.82987,41.79335 107.07617,65.65992 9.67803,8.47753 -4.04061,38.38579 -4.04061,38.38579 l -15.15229,10.10153 c 0,0 -8.65086,133.97083 -28.28427,203.04061 9.02153,32.5841 14.69302,49.1246 -30.30458,50.5077 l -87.88327,-14.1422 -15.15229,-7.071 -7.07106,-1.0102 -5.05077,3.0305 -6.06091,-7.0711 -10.10153,1.0102 -9.09137,-3.0305 -10.10153,1.0102 -11.11167,-4.0407 -10.10153,3.0305 -3.03046,-5.0508 -9.09137,7.0711 -7.07107,-2.0203 -9.09137,3.0305 -8.08122,-3.0305 -6.06092,11.1117 -104.04571,16.1624 c 0,0 -37.85465,-7.8999 -55.19496,-16.0508 -17.43644,-8.1961 -47.8406,-32.4365 -47.8406,-32.4365 l -78.791898,19.1929 c -29.597524,1.9409 -31.2108227,-13.0117 -50.507628,-35.3553 z"
           id="path3006"
           inkscape:connector-curvature="0"
           sodipodi:nodetypes="cscscsccccccccccccccccccccccsscccccccccccccccccccccsccc" />
        <g
           id="g3063"
           transform="matrix(1,0,-0.01444095,1,-622.37351,351.53309)">
          <g
             id="g3044">
            <path
               style="fill:#ffffff;stroke:#000000;stroke-width:1px;stroke-linecap:butt;stroke-linejoin:miter;stroke-opacity:1"
               d="M 647.50778,690.72757 613.1626,427.07775 698.01541,411.92546 729.33014,673.55497 z"
               id="path3008"
               inkscape:connector-curvature="0" />
            <path
               style="fill:#ffffff;stroke:#000000;stroke-width:1px;stroke-linecap:butt;stroke-linejoin:miter;stroke-opacity:1"
               d="m 619.22351,427.07776 -2.0203,26.26396 83.84266,-16.16244 -6.06092,-22.22335 z"
               id="path3010"
               inkscape:connector-curvature="0" />
            <path
               inkscape:connector-curvature="0"
               id="path3012"
               d="m 622.25397,452.33157 -2.0203,26.26396 83.84266,-16.16244 -6.06092,-22.22335 z"
               style="fill:#ffffff;stroke:#000000;stroke-width:1px;stroke-linecap:butt;stroke-linejoin:miter;stroke-opacity:1" />
            <path
               style="fill:#ffffff;stroke:#000000;stroke-width:1px;stroke-linecap:butt;stroke-linejoin:miter;stroke-opacity:1"
               d="m 624.27428,478.59554 -2.0203,26.26396 83.84266,-16.16244 -6.06092,-22.22335 z"
               id="path3014"
               inkscape:connector-curvature="0" />
            <path
               inkscape:connector-curvature="0"
               id="path3016"
               d="m 628.31489,504.85951 -2.0203,26.26396 83.84266,-16.16244 -6.06092,-22.22335 z"
               style="fill:#ffffff;stroke:#000000;stroke-width:1px;stroke-linecap:butt;stroke-linejoin:miter;stroke-opacity:1" />
            <path
               style="fill:#ffffff;stroke:#000000;stroke-width:1px;stroke-linecap:butt;stroke-linejoin:miter;stroke-opacity:1"
               d="m 631.34535,530.11332 -2.0203,26.26396 83.84266,-16.16244 -6.06092,-22.22335 z"
               id="path3018"
               inkscape:connector-curvature="0" />
            <path
               inkscape:connector-curvature="0"
               id="path3020"
               d="m 634.3758,555.15287 -2.0203,27.98838 83.84266,-17.22363 -6.06092,-23.68247 z"
               style="fill:#ffffff;stroke:#000000;stroke-width:1.03230679px;stroke-linecap:butt;stroke-linejoin:miter;stroke-opacity:1" />
            <path
               style="fill:#ffffff;stroke:#000000;stroke-width:1px;stroke-linecap:butt;stroke-linejoin:miter;stroke-opacity:1"
               d="m 639.42657,581.6311 -2.0203,26.26396 83.84266,-16.16244 -6.06092,-22.22335 z"
               id="path3022"
               inkscape:connector-curvature="0" />
            <path
               inkscape:connector-curvature="0"
               id="path3024"
               d="m 642.45702,607.89507 -2.0203,26.26396 83.84266,-16.16244 -6.06092,-22.22335 z"
               style="fill:#ffffff;stroke:#000000;stroke-width:1px;stroke-linecap:butt;stroke-linejoin:miter;stroke-opacity:1" />
            <path
               style="fill:#ffffff;stroke:#000000;stroke-width:1px;stroke-linecap:butt;stroke-linejoin:miter;stroke-opacity:1"
               d="m 645.48748,634.15904 -2.0203,26.26396 83.84266,-16.16244 -6.06092,-22.22335 z"
               id="path3026"
               inkscape:connector-curvature="0" />
            <path
               inkscape:connector-curvature="0"
               id="path3028"
               d="m 648.51794,658.4027 -2.0203,26.26396 83.84266,-16.16244 -6.06092,-22.22335 z"
               style="fill:#ffffff;stroke:#000000;stroke-width:1px;stroke-linecap:butt;stroke-linejoin:miter;stroke-opacity:1" />
            <path
               style="fill:#000000;stroke:#000000;stroke-width:1px;stroke-linecap:butt;stroke-linejoin:miter;stroke-opacity:1"
               d="m 660.13469,446.77573 -1.01015,-9.59645 39.39594,-5.55584 1.01016,15.65737 z"
               id="path3030"
               inkscape:connector-curvature="0" />
            <path
               inkscape:connector-curvature="0"
               id="path3032"
               d="m 665.18545,472.02954 -1.01015,-9.59645 39.39594,-5.55584 1.01016,15.65737 z"
               style="fill:#000000;stroke:#000000;stroke-width:1px;stroke-linecap:butt;stroke-linejoin:miter;stroke-opacity:1" />
            <path
               style="fill:#000000;stroke:#000000;stroke-width:1px;stroke-linecap:butt;stroke-linejoin:miter;stroke-opacity:1"
               d="m 665.18545,499.30366 -1.01015,-9.59645 39.39594,-5.55584 1.01016,15.65737 z"
               id="path3034"
               inkscape:connector-curvature="0" />
            <path
               inkscape:connector-curvature="0"
               id="path3036"
               d="m 674.09798,548.65533 -1.98994,-9.44205 38.61748,-9.57068 2.61213,15.47096 z"
               style="fill:#000000;stroke:#000000;stroke-width:1px;stroke-linecap:butt;stroke-linejoin:miter;stroke-opacity:1" />
            <path
               style="fill:#000000;stroke:#000000;stroke-width:1px;stroke-linecap:butt;stroke-linejoin:miter;stroke-opacity:1"
               d="m 675.5473,576.70694 -1.37544,-9.55094 39.15537,-7.05442 1.60662,15.60745 z"
               id="path3038"
               inkscape:connector-curvature="0" />
            <path
               inkscape:connector-curvature="0"
               id="path3040"
               d="m 683.62852,630.24502 -1.37544,-9.55094 39.15537,-7.05442 1.60662,15.60745 z"
               style="fill:#000000;stroke:#000000;stroke-width:1px;stroke-linecap:butt;stroke-linejoin:miter;stroke-opacity:1" />
          </g>
        </g>
        <path
           style="fill:#ffffff;stroke:#000000;stroke-width:1px;stroke-linecap:butt;stroke-linejoin:miter;stroke-opacity:1"
           d="m -33.335034,754.36718 c 0,0 0.434668,-8.69324 5.411598,-15.14787 5.909355,-7.66391 18.0399505,-12.94449 24.3879019,-16.16685 13.3795478,-6.79176 33.9706491,-9.35536 52.4774581,-15.36594 38.590461,-12.53329 81.872826,-15.94879 81.872826,-15.94879 0,0 43.61437,22.06695 68.38733,34.95128 19.74555,10.26959 54.3462,38.78986 54.3462,38.78986 0,0 -41.01599,13.7253 -63.6396,12.12182 -29.59133,-2.09732 -85.86297,-32.32488 -85.86297,-32.32488 0,0 -57.694681,2.84965 -85.725265,10.42902 -27.2755734,7.37522 -51.655479,-1.33765 -51.655479,-1.33765 z"
           id="path3042"
           inkscape:connector-curvature="0"
           sodipodi:nodetypes="cssscscscsc" />
        <path
           style="fill:#ffffff;stroke:#000000;stroke-width:1px;stroke-linecap:butt;stroke-linejoin:miter;stroke-opacity:1"
           d="m 131.31983,1024.0779 -30.30457,-259.6092 38.38579,19.19291 31.31474,264.65999 z"
           id="path3083"
           inkscape:connector-curvature="0"
           sodipodi:nodetypes="ccccc" />
        <path
           style="fill:#ffffff;stroke:#000000;stroke-width:1px;stroke-linecap:butt;stroke-linejoin:miter;stroke-opacity:1"
           d="m 131.42856,690.93361 c 0,0 17.9933,-8.74569 27.69313,-10.71761 7.29028,-1.48207 22.30688,-0.71096 22.30688,-0.71096 l 16.9832,9.70163 82.30252,56.01266 -27.85714,20 -61.85856,-43.32187 z"
           id="path3085"
           inkscape:connector-curvature="0"
           sodipodi:nodetypes="cscccccc" />
        <path
           style="fill:#ffffff;stroke:#000000;stroke-width:1px;stroke-linecap:butt;stroke-linejoin:miter;stroke-opacity:1"
           d="m 254.28571,765.21932 25.00001,-19.28571 39.28571,326.42859 -27.85714,5.7143 z"
           id="path3087"
           inkscape:connector-curvature="0"
           sodipodi:nodetypes="ccccc" />
        <path
           style="fill:#ffffff;stroke:#000000;stroke-width:1px;stroke-linecap:butt;stroke-linejoin:miter;stroke-opacity:1"
           d="m 620,788.79075 c 8.74457,10.24395 -8.57143,42.14286 -8.57143,42.14286 l -57.14285,0 L 520,1035.2193 l 50.71428,4.2857 c 0,0 6.50376,17.6708 5.39541,29.9713 -0.81159,9.0071 -8.0542,13.3063 -13.25255,14.3145 -6.38851,1.239 -14.08925,5.9701 -22.14714,4.5536 -41.63247,-7.3185 -94.99571,-15.9823 -94.99571,-15.9823 l 61.42857,-324.28564 c 0,0 37.65497,-4.99599 53.57143,0.71429 21.68188,7.77871 43.45095,21.45014 59.28571,40 z"
           id="path3089"
           inkscape:connector-curvature="0"
           sodipodi:nodetypes="sccccsssccss" />
        <path
           style="fill:#ffffff;stroke:#000000;stroke-width:1px;stroke-linecap:butt;stroke-linejoin:miter;stroke-opacity:1"
           d="m 280.35714,745.21932 12.75026,6.57244 10.82117,-1.57244 7.5,-7.85714 18.57143,0.89285 13.92857,-1.60714 8.92857,3.57143 14.28572,-5.71428 12.14285,-2.5 7.67857,-5.71429 14.02896,-1.4078 16.68533,3.19351 12.32143,10.71429 15.71429,-5.71429 5.71428,10 11.42858,-5.71428 5.71428,5.71428 14.28572,1.42858 24.28571,-1.42858 -93.57143,-44.99999 c -0.58763,3.24145 -4.21099,-1.52114 -8.13137,-4.33082 -2.7337,-1.95921 -5.61182,-2.96884 -7.70579,0.34705 -2.34286,3.71001 -2.29499,0.76718 -5.18242,-1.76457 -2.27033,-1.99066 -5.86491,-5.50324 -6.85989,-6.70703 l -8.28124,6.54018 -13.83929,-7.65624 -13.21429,0.35714 c -5.60947,-3.33596 -9.61596,-0.67993 -16.96428,3.74999 l -11.07143,-6.96427 -7.67857,6.60714 -8.92857,-4.46429 c -4.57247,-1.8729 -5.54867,6.14128 -7.85715,6.07143 l -16.78571,-8.57143 -8.92857,7.85714 -11.42857,-5.71428 -9.28572,3.57142 -11.78571,-6.07143 -7.85714,5.00001 -15,-5.71429 -11.78571,7.85714 z"
           id="path3091"
           inkscape:connector-curvature="0"
           sodipodi:nodetypes="ccccccccccccccccccccssscccccccccccccccccc" />
        <path
           style="fill:#ffffff;stroke:#000000;stroke-width:0.95501137px;stroke-linecap:butt;stroke-linejoin:miter;stroke-opacity:1"
           d="m 205.6918,692.58152 9.0092,-8.03249 89.96436,65.64544 -11.65364,0.83952 -12.32642,-5.541 -31.37084,-21.20727 z"
           id="path3093"
           inkscape:connector-curvature="0"
           sodipodi:nodetypes="ccccccc" />
        <path
           sodipodi:nodetypes="cccccc"
           inkscape:connector-curvature="0"
           id="path3095"
           d="m 217.83466,686.86723 15.08063,5.53894 77.8215,49.93115 -6.2965,7.62524 C 290.5463,739.07618 275.6134,728.1412 261.45732,718.57143 z"
           style="fill:#ffffff;stroke:#000000;stroke-width:0.95501137px;stroke-linecap:butt;stroke-linejoin:miter;stroke-opacity:1" />
        <path
           style="fill:#ffffff;stroke:#000000;stroke-width:0.85175341px;stroke-linecap:butt;stroke-linejoin:miter;stroke-opacity:1"
           d="m 232.42589,691.41926 6.84129,-5.31085 11.80024,6.66599 70.84319,50.04681 -10.77332,0.35944 c -12.62754,-8.97275 -26.19928,-17.94653 -39.06501,-25.75647 z"
           id="path3097"
           inkscape:connector-curvature="0"
           sodipodi:nodetypes="ccccccc" />
        <path
           sodipodi:nodetypes="ccccccc"
           inkscape:connector-curvature="0"
           id="path3099"
           d="m 251.82633,693.12146 8.4809,-5.0156 11.01204,6.21593 64.3761,48.5228 -13.05692,0.55821 c -11.79336,-8.37964 -22.50089,-17.29229 -34.50999,-24.57868 z"
           style="fill:#ffffff;stroke:#000000;stroke-width:0.79627866px;stroke-linecap:butt;stroke-linejoin:miter;stroke-opacity:1" />
        <path
           style="fill:#ffffff;stroke:#000000;stroke-width:0.79627866px;stroke-linecap:butt;stroke-linejoin:miter;stroke-opacity:1"
           d="m 271.82633,694.55003 9.37376,-7.5156 17.08347,8.71593 54.55467,48.70137 -17.87835,-2.12036 c -11.79336,-8.37964 -16.78661,-14.97086 -28.79571,-22.25725 z"
           id="path3101"
           inkscape:connector-curvature="0"
           sodipodi:nodetypes="ccccccc" />
        <path
           sodipodi:nodetypes="ccccccc"
           inkscape:connector-curvature="0"
           id="path3103"
           d="m 297.54062,695.26432 7.4318,-7.56024 13.84686,9.47485 47.76895,42.09423 -13.41406,5.55822 c -11.79336,-8.37964 -15.53661,-14.43515 -24.86714,-22.6144 z"
           style="fill:#ffffff;stroke:#000000;stroke-width:0.79627866px;stroke-linecap:butt;stroke-linejoin:miter;stroke-opacity:1" />
        <path
           style="fill:#ffffff;stroke:#000000;stroke-width:0.73585171px;stroke-linecap:butt;stroke-linejoin:miter;stroke-opacity:1"
           d="m 314.65326,693.91339 7.61443,-7.66809 12.85627,8.71483 43.63733,41.39624 -11.74014,2.4338 c -10.94968,-7.70748 -15.49657,-13.09868 -24.15961,-20.62183 z"
           id="path3105"
           inkscape:connector-curvature="0"
           sodipodi:nodetypes="ccccccc" />
        <path
           sodipodi:nodetypes="cccccccc"
           inkscape:connector-curvature="0"
           id="path3107"
           d="m 334.21203,693.80783 5.90802,-4.26049 6.10248,-1.51071 8.2643,6.22171 32.67552,36.66732 -8.20276,5.65622 c -10.8368,-7.8654 -10.30506,-10.4648 -18.85814,-18.11274 z"
           style="fill:#ffffff;stroke:#000000;stroke-width:0.73585171px;stroke-linecap:butt;stroke-linejoin:miter;stroke-opacity:1" />
        <path
           style="fill:#ffffff;stroke:#000000;stroke-width:0.73585171px;stroke-linecap:butt;stroke-linejoin:miter;stroke-opacity:1"
           d="m 350.10489,690.59354 10.01516,-0.68906 3.42391,-0.26071 12.90716,7.65028 24.10409,32.38161 -12.84562,1.19193 c -10.12251,-9.82969 -5.48363,-6.89337 -14.03671,-14.54131 z"
           id="path3109"
           inkscape:connector-curvature="0"
           sodipodi:nodetypes="cccccccc" />
        <path
           sodipodi:nodetypes="cccccc"
           inkscape:connector-curvature="0"
           id="path3111"
           d="m 376.53346,697.37925 c 4.48074,-0.3028 5.38967,-4.71594 9.68907,-6.30691 l 12.55002,14.43599 18.92552,27.38161 -17.30991,-3.6295 c -12.43583,-16.72008 -8.91408,-12.36895 -23.8547,-31.88119 z"
           style="fill:#ffffff;stroke:#000000;stroke-width:0.73585171px;stroke-linecap:butt;stroke-linejoin:miter;stroke-opacity:1" />
        <path
           style="fill:#ffffff;stroke:#000000;stroke-width:0.73585171px;stroke-linecap:butt;stroke-linejoin:miter;stroke-opacity:1"
           d="m 395.28346,701.12925 c 4.48074,-0.3028 3.60396,-4.53737 7.90336,-6.12834 l 14.33573,14.25742 28.03266,28.81018 -16.05991,5.29907 c -3.15862,-4.24679 -8.9023,-7.51966 -12.1378,-10.68512 -2.75579,-2.69613 -3.05466,-5.36336 -5.26118,-7.95929 -5.40242,-6.35582 -8.89924,-13.25885 -16.81286,-23.59392 z"
           id="path3113"
           inkscape:connector-curvature="0"
           sodipodi:nodetypes="cccccssc" />
        <path
           sodipodi:nodetypes="cccccc"
           inkscape:connector-curvature="0"
           id="path3115"
           d="m 412.96203,703.62925 c 4.48074,-0.3028 1.4611,2.78406 5.7605,1.19309 l 15.94288,8.54313 28.74694,28.81018 -11.77419,5.83479 c -6.98577,-15.74802 -28.16117,-30.53715 -38.67613,-44.38119 z"
           style="fill:#ffffff;stroke:#000000;stroke-width:0.73585171px;stroke-linecap:butt;stroke-linejoin:miter;stroke-opacity:1" />
        <path
           style="fill:#ffffff;stroke:#000000;stroke-width:0.57092279px;stroke-linecap:butt;stroke-linejoin:miter;stroke-opacity:1"
           d="m 436.80814,714.43447 c 3.57552,-0.22842 1.16592,2.10021 4.59673,0.90003 l 12.72203,6.44469 24.54648,27.26926 -11.00265,-1.13411 c -2.48075,-5.28676 -8.63249,-10.2517 -13.85045,-15.25286 -6.50727,-6.23692 -12.35548,-12.43105 -17.01214,-18.22701 z"
           id="path3117"
           inkscape:connector-curvature="0"
           sodipodi:nodetypes="cccccsc" />
        <path
           inkscape:connector-curvature="0"
           id="path3121"
           d="m 318.19805,1071.5551 6.99337,1.3987 8.15892,-11.5002 -40.65864,-309.35926 -12.87944,-6.56599 z"
           style="fill:#ffffff;stroke:#000000;stroke-width:1px;stroke-linecap:butt;stroke-linejoin:miter;stroke-opacity:1"
           sodipodi:nodetypes="cccccc" />
        <path
           sodipodi:nodetypes="ccccc"
           style="fill:#ffffff;stroke:#000000;stroke-width:1px;stroke-linecap:butt;stroke-linejoin:miter;stroke-opacity:1"
           d="m 332.84526,1061.7061 c 10.53715,2.7798 7.15494,1.8132 15.65737,-1.5152 l -43.6891,-309.86432 -11.36421,1.01015 z"
           id="path3123"
           inkscape:connector-curvature="0" />
        <path
           inkscape:connector-curvature="0"
           id="path3125"
           d="m 349.26024,1061.2011 c 10.53715,2.7798 8.1651,-2.48 16.66753,-5.8084 l -55.30586,-312.13719 -5.80837,6.56599 z"
           style="fill:#ffffff;stroke:#000000;stroke-width:1px;stroke-linecap:butt;stroke-linejoin:miter;stroke-opacity:1"
           sodipodi:nodetypes="ccccc" />
        <path
           sodipodi:nodetypes="ccccc"
           style="fill:#ffffff;stroke:#000000;stroke-width:1px;stroke-linecap:butt;stroke-linejoin:miter;stroke-opacity:1"
           d="m 359.36177,1057.1605 c 10.53715,2.7798 8.1651,3.9486 16.66753,0.6202 l -55.30586,-315.35151 -9.73694,1.20884 z"
           id="path3127"
           inkscape:connector-curvature="0" />
        <path
           inkscape:connector-curvature="0"
           id="path3129"
           d="m 375.79035,1056.8034 c 10.53715,2.7798 7.80795,6.8057 16.31038,3.4773 l -57.80586,-317.49436 -12.59408,0.49455 z"
           style="fill:#ffffff;stroke:#000000;stroke-width:1px;stroke-linecap:butt;stroke-linejoin:miter;stroke-opacity:1"
           sodipodi:nodetypes="ccccc" />
        <path
           sodipodi:nodetypes="ccccc"
           style="fill:#ffffff;stroke:#000000;stroke-width:1px;stroke-linecap:butt;stroke-linejoin:miter;stroke-opacity:1"
           d="m 392.93321,1060.0177 c 10.53715,2.7798 4.59367,5.7343 13.0961,2.4059 l -54.23444,-317.4944 -16.87979,-2.00545 z"
           id="path3131"
           inkscape:connector-curvature="0" />
        <path
           inkscape:connector-curvature="0"
           id="path3133"
           d="m 406.86178,1062.8749 c 10.53715,2.7798 8.87938,-2.8371 18.0961,3.8345 l -47.44873,-329.63734 -25.80836,7.99455 z"
           style="fill:#ffffff;stroke:#000000;stroke-width:1px;stroke-linecap:butt;stroke-linejoin:miter;stroke-opacity:1"
           sodipodi:nodetypes="ccccc" />
        <path
           sodipodi:nodetypes="cccccc"
           style="fill:#ffffff;stroke:#000000;stroke-width:1px;stroke-linecap:butt;stroke-linejoin:miter;stroke-opacity:1"
           d="m 424.71892,1066.8035 c 10.53715,2.7798 9.23653,2.52 20.95325,3.8345 l -46.02016,-339.63737 -12.46333,0.91863 -9.41646,5.64735 z"
           id="path3135"
           inkscape:connector-curvature="0" />
        <path
           inkscape:connector-curvature="0"
           id="path3150"
           d="m 445.43321,1068.9464 c 5.53715,-5.0773 7.09367,-58.1943 16.66754,-82.5941 l -33.16302,-243.20881 -16.03476,-10.50994 -12.2736,-2.20979 z"
           style="fill:#ffffff;stroke:#000000;stroke-width:1px;stroke-linecap:butt;stroke-linejoin:miter;stroke-opacity:1"
           sodipodi:nodetypes="cccccc" />
        <path
           sodipodi:nodetypes="cccccc"
           style="fill:#ffffff;stroke:#000000;stroke-width:1px;stroke-linecap:butt;stroke-linejoin:miter;stroke-opacity:1"
           d="m 461.86178,984.66073 c 5.53715,-3.64877 7.80795,-56.05144 17.38182,-80.45128 l -36.02016,-163.9231 -6.03476,1.63292 -7.2736,4.21878 z"
           id="path3152"
           inkscape:connector-curvature="0" />
        <path
           inkscape:connector-curvature="0"
           id="path3154"
           d="m 476.86179,908.94645 c 6.25144,-9.36306 2.09366,-31.05144 11.66753,-55.45128 l -25.30588,-108.20882 -10.32047,-2.65279 -7.2736,-1.49551 z"
           style="fill:#ffffff;stroke:#000000;stroke-width:1px;stroke-linecap:butt;stroke-linejoin:miter;stroke-opacity:1"
           sodipodi:nodetypes="cccccc" />
        <path
           sodipodi:nodetypes="cccccc"
           style="fill:#ffffff;stroke:#000000;stroke-width:1px;stroke-linecap:butt;stroke-linejoin:miter;stroke-opacity:1"
           d="m 488.29035,851.08931 c 2.68001,-5.79163 -1.47776,-23.1943 8.09611,-47.59414 l -13.87731,-52.49453 -10.32047,-2.65279 -7.2736,-1.49551 z"
           id="path3156"
           inkscape:connector-curvature="0" />
        <path
           style="fill:#ffffff;stroke:#000000;stroke-width:1px;stroke-linecap:butt;stroke-linejoin:miter;stroke-opacity:1"
           d="m 487.23096,898.07647 5.53808,-31.42857 18.3197,1.42857 -9.57207,30 z"
           id="path3158"
           inkscape:connector-curvature="0" />
        <path
           inkscape:connector-curvature="0"
           id="path3160"
           d="m 480.0881,939.50504 5.53808,-31.42857 18.3197,1.42857 -9.57207,30 z"
           style="fill:#ffffff;stroke:#000000;stroke-width:1px;stroke-linecap:butt;stroke-linejoin:miter;stroke-opacity:1"
           inkscape:transform-center-x="-12.42889"
           inkscape:transform-center-y="-45.714286" />
        <path
           inkscape:transform-center-y="-45.714286"
           inkscape:transform-center-x="-12.42889"
           style="fill:#ffffff;stroke:#000000;stroke-width:1px;stroke-linecap:butt;stroke-linejoin:miter;stroke-opacity:1"
           d="m 472.94524,979.50504 5.53808,-31.42857 18.3197,1.42857 -9.57207,30 z"
           id="path3162"
           inkscape:connector-curvature="0" />
        <path
           sodipodi:type="arc"
           style="fill:#000000;stroke:none"
           id="path3166"
           sodipodi:cx="556.42859"
           sodipodi:cy="893.07648"
           sodipodi:rx="5"
           sodipodi:ry="5"
           d="m 561.42859,893.07648 c 0,2.76142 -2.23858,5 -5,5 -2.76142,0 -5,-2.23858 -5,-5 0,-2.76143 2.23858,-5 5,-5 2.76142,0 5,2.23857 5,5 z" />
        <path
           sodipodi:type="arc"
           style="fill:#000000;stroke:none"
           id="path3168"
           sodipodi:cx="575.71429"
           sodipodi:cy="893.58234"
           sodipodi:rx="4.2857141"
           sodipodi:ry="6.9344316"
           d="m 580.00001,893.58234 c 0,3.82978 -1.91878,6.93443 -4.28572,6.93443 -2.36693,0 -4.28571,-3.10465 -4.28571,-6.93443 0,-3.82978 1.91878,-6.93444 4.28571,-6.93444 2.36694,0 4.28572,3.10466 4.28572,6.93444 z" />
        <path
           sodipodi:type="arc"
           style="fill:#000000;stroke:none"
           id="path3170"
           sodipodi:cx="558.57141"
           sodipodi:cy="915.01093"
           sodipodi:rx="4.2857141"
           sodipodi:ry="6.9344316"
           d="m 562.85713,915.01093 c 0,3.82978 -1.91878,6.93443 -4.28572,6.93443 -2.36693,0 -4.28571,-3.10465 -4.28571,-6.93443 0,-3.82979 1.91878,-6.93444 4.28571,-6.93444 2.36694,0 4.28572,3.10465 4.28572,6.93444 z"
           transform="translate(-4.2857143,-2.8571429)" />
        <path
           d="m 562.85713,915.01093 c 0,3.82978 -1.91878,6.93443 -4.28572,6.93443 -2.36693,0 -4.28571,-3.10465 -4.28571,-6.93443 0,-3.82979 1.91878,-6.93444 4.28571,-6.93444 2.36694,0 4.28572,3.10465 4.28572,6.93444 z"
           sodipodi:ry="6.9344316"
           sodipodi:rx="4.2857141"
           sodipodi:cy="915.01093"
           sodipodi:cx="558.57141"
           id="path3172"
           style="fill:#000000;stroke:none"
           sodipodi:type="arc"
           transform="translate(12.857143,2.8571429)" />
        <path
           transform="translate(11.428572,24.285714)"
           sodipodi:type="arc"
           style="fill:#000000;stroke:none"
           id="path3174"
           sodipodi:cx="558.57141"
           sodipodi:cy="915.01093"
           sodipodi:rx="4.2857141"
           sodipodi:ry="6.9344316"
           d="m 562.85713,915.01093 c 0,3.82978 -1.91878,6.93443 -4.28572,6.93443 -2.36693,0 -4.28571,-3.10465 -4.28571,-6.93443 0,-3.82979 1.91878,-6.93444 4.28571,-6.93444 2.36694,0 4.28572,3.10465 4.28572,6.93444 z" />
        <path
           d="m 562.85713,915.01093 c 0,3.82978 -1.91878,6.93443 -4.28572,6.93443 -2.36693,0 -4.28571,-3.10465 -4.28571,-6.93443 0,-3.82979 1.91878,-6.93444 4.28571,-6.93444 2.36694,0 4.28572,3.10465 4.28572,6.93444 z"
           sodipodi:ry="6.9344316"
           sodipodi:rx="4.2857141"
           sodipodi:cy="915.01093"
           sodipodi:cx="558.57141"
           id="path3176"
           style="fill:#000000;stroke:none"
           sodipodi:type="arc"
           transform="translate(-7.1428566,21.428571)" />
        <path
           transform="translate(-14.285714,48.571428)"
           sodipodi:type="arc"
           style="fill:#000000;stroke:none"
           id="path3178"
           sodipodi:cx="558.57141"
           sodipodi:cy="915.01093"
           sodipodi:rx="4.2857141"
           sodipodi:ry="6.9344316"
           d="m 562.85713,915.01093 c 0,3.82978 -1.91878,6.93443 -4.28572,6.93443 -2.36693,0 -4.28571,-3.10465 -4.28571,-6.93443 0,-3.82979 1.91878,-6.93444 4.28571,-6.93444 2.36694,0 4.28572,3.10465 4.28572,6.93444 z" />
        <path
           d="m 562.85713,915.01093 c 0,3.82978 -1.91878,6.93443 -4.28572,6.93443 -2.36693,0 -4.28571,-3.10465 -4.28571,-6.93443 0,-3.82979 1.91878,-6.93444 4.28571,-6.93444 2.36694,0 4.28572,3.10465 4.28572,6.93444 z"
           sodipodi:ry="6.9344316"
           sodipodi:rx="4.2857141"
           sodipodi:cy="915.01093"
           sodipodi:cx="558.57141"
           id="path3180"
           style="fill:#000000;stroke:none"
           sodipodi:type="arc"
           transform="translate(7.1428574,49.999999)" />
        <path
           style="fill:#ffff00;stroke:none"
           d="m 207.62346,1083.0299 c -36.66987,-9.3261 -46.04149,-14.0176 -83.87067,-41.9859 l -4.40706,-3.2583 -38.532221,9.4458 c -55.82565,13.6851 -59.765697,13.2275 -77.2801017,-8.9758 -5.4087385,-6.8567 -10.55915,-13.7133 -11.4453585,-15.2369 -0.8862072,-1.5235 -3.8456268,-22.0558 -6.5764888,-45.62723 -10.433915,-90.06035 -14.716961,-140.2754 -16.012039,-187.72745 l -0.912704,-33.44173 3.446892,1.05138 c 1.89579,0.57825 9.875463,1.40012 17.732605,1.82636 11.8061705,0.64048 17.3851448,0.14413 32.142858,-2.85972 17.831095,-3.62943 45.626574,-7.21005 68.571428,-8.83341 l 12.14286,-0.85911 22.11158,10.21339 c 52.52735,24.2625 70.6245,26.36815 116.68659,13.57678 l 11.6553,-3.23666 0.82143,5.85937 c 2.2564,16.0954 35.23724,302.66993 34.86808,302.97293 -0.23578,0.1935 -13.9287,2.3909 -30.4287,4.8829 -16.5,2.4921 -31.60714,4.7861 -33.57143,5.098 -1.96428,0.3118 -9.67857,-0.9863 -17.14285,-2.8847 l 0,0 z m -35.71429,-34.3325 c 0,-1.637 -30.03943,-255.68707 -30.86204,-261.00699 -0.82664,-5.34613 -1.09162,-5.54281 -20.70194,-15.36668 l -19.86459,-9.95124 0,4.03504 c 0,4.12492 27.88187,245.82607 29.3172,254.14367 0.70673,4.0955 2.89549,5.8948 20.38014,16.7538 18.85289,11.7088 21.73123,13.2177 21.73123,11.3924 l 0,0 z m -113.389284,-14.2096 40.182144,-8.3687 -0.429004,-5.7923 c -0.235951,-3.1858 -1.208851,-12.5424 -2.161999,-20.79237 -0.953147,-8.25 -1.869527,-18.87858 -2.0364,-23.61906 -0.166872,-4.74047 -1.112094,-11.99004 -2.100491,-16.11014 -0.988396,-4.1201 -1.50778,-9.88439 -1.154184,-12.80952 0.353594,-2.92514 0.05973,-7.02273 -0.653032,-9.10577 -0.712761,-2.08304 -5.306883,-42.08116 -10.209158,-88.88471 -4.902276,-46.80354 -9.284276,-85.4684 -9.737777,-85.9219 -0.95851,-0.95851 -84.231932,13.47542 -85.770609,14.86677 -0.995364,0.90006 7.0789871,74.62319 19.4964442,178.0129 1.88734,15.71428 4.9213043,41.94681 6.7421438,58.2945 2.767929,24.8507 3.666266,29.6309 5.480199,29.161 1.193269,-0.3091 20.251544,-4.3279 42.351723,-8.9307 z"
           id="path3182"
           inkscape:connector-curvature="0" />
        <path
           style="fill:#ffff00;stroke:none"
           d="m 185.4806,775.76572 c -17.85667,-3.62574 -39.68804,-11.6828 -66.56979,-24.56817 l -15.1412,-7.25772 -17.715934,1.40238 c -26.425161,2.09182 -50.350867,5.21459 -65.573076,8.55859 -14.8698155,3.26658 -33.684968,3.79428 -45.435243,1.2743 -6.964698,-1.49366 -7.13723,-1.65212 -6.024231,-5.53292 0.630197,-2.19737 1.834678,-5.28238 2.676624,-6.85557 4.459293,-8.33226 23.4805016,-19.17335 43.068564,-24.54681 5.892858,-1.61654 21.262935,-5.84385 34.155726,-9.39402 24.75054,-6.81532 46.726862,-11.43181 67.98713,-14.28182 l 12.85714,-1.72354 32.14286,16.44426 c 25.39427,12.9917 37.92477,20.49488 59.68152,35.73692 15.14627,10.61095 27.03912,19.77745 26.42857,20.37 -1.54617,1.50058 -21.47067,6.43495 -36.65436,9.07757 -12.24803,2.13169 -19.8868,2.51432 -25.8843,1.29655 z"
           id="path3184"
           inkscape:connector-curvature="0" />
        <path
           style="fill:#000000;stroke:none"
           d="m 150.47703,1034.318 c -9.81946,-6.0236 -17.92216,-11.0106 -18.006,-11.0821 -0.74635,-0.6367 -29.41423,-253.89672 -28.80852,-254.50244 0.44117,-0.44116 8.42358,3.01877 17.73868,7.68875 l 16.93655,8.49086 15.29766,129.0964 c 8.4137,71.00301 15.1621,129.58333 14.99643,130.17853 -0.16567,0.5952 -8.33533,-3.8463 -18.1548,-9.87 l 0,0 z"
           id="path3186"
           inkscape:connector-curvature="0" />
        <path
           style="fill:#0000ff;stroke:none"
           d="m 291.32206,1071.4184 c -1.33667,-8.3677 -35.12717,-300.07377 -35.12717,-303.2452 0,-1.79735 3.9306,-5.78382 11.07111,-11.22846 l 11.07111,-8.44172 10.35243,85.87284 c 17.23971,143.00252 27.50535,230.35664 27.50535,234.05324 0,3.2288 -0.81576,3.6502 -10.35715,5.3503 -5.69643,1.015 -11.09673,2.1264 -12.00068,2.4699 -0.98237,0.3733 -1.99411,-1.5701 -2.515,-4.8309 l 0,0 z"
           id="path3188"
           inkscape:connector-curvature="0" />
        <path
           style="fill:#0000ff;stroke:none"
           d="m 221.79701,741.85143 c -23.1546,-16.2264 -37.64252,-25.13764 -58.21429,-35.80647 -15.06331,-7.81207 -27.38783,-14.65442 -27.38783,-15.20523 0,-0.55081 4.33928,-2.77961 9.64285,-4.95288 7.3656,-3.01825 12.67921,-4.0885 22.5,-4.5319 l 12.85715,-0.58049 9.75905,5.78388 c 8.68284,5.14605 70.01045,46.58621 82.07755,55.46126 l 4.69374,3.45214 -3.26517,2.49087 c -1.79585,1.36998 -7.44375,5.41602 -12.55089,8.9912 l -9.28571,6.50034 -30.82645,-21.60272 z"
           id="path3190"
           inkscape:connector-curvature="0" />
        <path
           style="fill:#0000ff;stroke:none"
           d="m 295.4806,741.49254 c -4.71429,-3.55251 -20.78571,-15.18099 -35.71429,-25.84106 -28.4987,-20.35013 -31.72408,-22.86001 -27.43048,-21.34547 2.9863,1.0534 67.9364,42.71409 72.75736,46.66847 2.88593,2.36718 3.0077,2.89985 1.1017,4.81926 -1.90952,1.92294 -3.07623,1.45457 -10.71429,-4.3012 z"
           id="path3192"
           inkscape:connector-curvature="0" />
        <path
           style="fill:#0000ff;stroke:none"
           d="m 286.4049,746.64988 c -3.42021,-1.55199 -12.42021,-7.11095 -20,-12.35324 -27.66868,-19.13607 -57.35287,-40.78265 -57.35287,-41.82339 0,-0.58709 1.26149,-2.20906 2.8033,-3.60439 2.70816,-2.45084 3.0504,-2.35944 10.08303,2.69301 18.92479,13.59611 76.55251,55.6487 77.75653,56.74116 2.61163,2.36965 -7.08199,1.16385 -13.28999,-1.65315 z"
           id="path3194"
           inkscape:connector-curvature="0" />
        <path
           style="fill:#0000ff;stroke:none"
           d="m 319.05203,1069.4454 c 0,-0.8347 -8.35714,-72.27495 -18.57143,-158.75616 -10.21429,-86.48123 -18.57143,-158.43077 -18.57143,-159.88788 0,-2.52953 0.22601,-2.5415 5,-0.26495 2.75,1.31139 5,3.00212 5,3.75719 0,0.75507 6.73336,52.86815 14.96302,115.80684 8.22966,62.93869 17.17581,131.79116 19.88033,153.00546 l 4.91732,38.5714 -3.52447,4.6428 c -3.34459,4.406 -9.09334,6.3817 -9.09334,3.1253 z"
           id="path3196"
           inkscape:connector-curvature="0" />
        <path
           style="fill:#0000ff;stroke:none"
           d="m 336.14531,1061.4661 c -1.79471,-0.4864 -5.64527,-27.9907 -21.22648,-151.62005 -10.46873,-83.06425 -19.36714,-152.51914 -19.77426,-154.34421 -0.67411,-3.02199 -0.31153,-3.27711 4.06046,-2.85714 l 4.80067,0.46115 21.56634,152.85715 c 21.52033,152.531 21.56,152.8608 18.59459,154.5922 -3.06619,1.7903 -4.27101,1.9271 -8.02132,0.9109 l 0,0 z"
           id="path3198"
           inkscape:connector-curvature="0" />
        <path
           style="fill:#0000ff;stroke:none"
           d="m 363.12516,1057.1809 c -1.29549,-0.3616 -2.73371,-2.7121 -3.19603,-5.2234 -0.92215,-5.009 -46.39574,-299.94789 -46.95788,-304.56593 -0.25591,-2.10228 0.59579,-2.96576 3.22364,-3.26823 l 3.57142,-0.41109 26.91081,153.98252 c 14.80095,84.69038 27.01523,155.26823 27.14286,156.83963 0.18118,2.2309 -0.70742,2.9061 -4.05367,3.0806 -2.35714,0.1228 -5.34566,-0.072 -6.64115,-0.4341 z"
           id="path3200"
           inkscape:connector-curvature="0" />
        <path
           style="fill:#0000ff;stroke:none"
           d="m 351.16009,1059.4781 c -0.55851,-0.9037 -10.9032,-70.82796 -22.98821,-155.38732 -18.51638,-129.55995 -21.6674,-154.04962 -20.03163,-155.6854 1.63578,-1.63577 2.07839,-1.08167 2.81379,3.52254 12.19181,76.33094 46.65325,303.38628 46.35968,305.44908 -0.45535,3.1995 -4.60016,4.6147 -6.15363,2.1011 z"
           id="path3202"
           inkscape:connector-curvature="0" />
        <path
           style="fill:#0000ff;stroke:none"
           d="m 380.43445,1057.4517 c -3.55287,-1.9331 -4.08556,-4.685 -29.78533,-153.87137 -14.39227,-83.54668 -26.50543,-153.67091 -26.91814,-155.83162 -0.70445,-3.68812 -0.44037,-3.92857 4.31468,-3.92857 4.37694,0 5.17502,0.53372 5.87441,3.92857 0.44514,2.16071 13.04024,71.42857 27.9891,153.92857 14.94886,82.5 27.54396,151.76782 27.9891,153.92862 0.70105,3.4029 0.36406,3.9209 -2.51845,3.8713 -1.83028,-0.031 -4.9557,-0.9429 -6.94537,-2.0255 l 0,0 z"
           id="path3204"
           inkscape:connector-curvature="0" />
        <path
           style="fill:#0000ff;stroke:none"
           d="m 397.62346,1060.6596 c -3.51407,-1.405 -4.02855,-3.9322 -32.03272,-157.348 -15.65371,-85.75602 -28.6791,-156.56289 -28.9453,-157.3486 -0.29367,-0.86678 2.29831,-1.23615 6.5911,-0.93925 6.34911,0.43911 7.15342,0.87888 7.83828,4.28571 1.23896,6.16315 6.69297,37.91952 30.0941,175.22497 12.18583,71.5 22.53143,131.76787 22.99023,133.92857 0.91074,4.2892 -0.2916,4.6933 -6.53569,2.1966 z"
           id="path3206"
           inkscape:connector-curvature="0" />
        <path
           style="fill:#0000ff;stroke:none"
           d="m 415.12346,1062.6741 c -4.125,-0.2375 -7.5,-0.9988 -7.5,-1.6917 0,-0.9203 -47.8794,-277.91775 -53.72883,-310.83821 -0.77954,-4.38719 -0.77245,-4.39245 10.20253,-7.58137 6.04044,-1.75512 11.39422,-2.78051 11.89731,-2.27863 0.73948,0.73769 47.44628,322.82171 46.81378,322.82171 -0.10164,0 -3.55979,-0.1944 -7.68479,-0.4318 z"
           id="path3208"
           inkscape:connector-curvature="0" />
        <path
           style="fill:#0000ff;stroke:none"
           d="m 433.69475,1067.8272 c -5.94201,-1.0837 -7.64727,-2.013 -8.20839,-4.4732 -0.38954,-1.7079 -10.68803,-73.81957 -22.88553,-160.24815 -12.1975,-86.42857 -22.51873,-158.82782 -22.93608,-160.88722 -0.6378,-3.14721 0.0632,-4.22939 4.39589,-6.78571 5.80752,-3.42653 14.99139,-4.13533 14.99139,-1.15703 0,1.80717 43.63154,325.43511 44.76624,332.04421 0.60295,3.512 0.74995,3.4901 -10.12352,1.5071 z"
           id="path3212"
           inkscape:connector-curvature="0" />
        <path
           style="fill:#0000ff;stroke:none"
           d="m 445.6077,1059.3818 c -0.35994,-1.0946 -10.03082,-73.34737 -21.49084,-160.56166 -11.46002,-87.21429 -21.21706,-160.4351 -21.68232,-162.71293 -0.8362,-4.09391 -0.78406,-4.13146 4.53849,-3.26773 2.96142,0.48058 8.78739,3.13323 12.9466,5.89479 5.91572,3.92782 7.74052,6.03894 8.38123,9.6963 0.45047,2.5714 7.919,56.74671 16.59672,120.38957 l 15.77769,115.71429 -2.89746,12.14285 c -1.5936,6.67862 -4.59475,23.71432 -6.66922,37.85712 -2.07447,14.1429 -4.01357,25.967 -4.30911,26.2759 -0.29554,0.3089 -0.83184,-0.3339 -1.19178,-1.4285 l 0,0 z"
           id="path3214"
           inkscape:connector-curvature="0" />
        <path
           style="fill:#0000ff;stroke:none"
           d="m 446.9788,864.237 -15.60017,-116.53237 3.35477,-2.71653 c 6.69898,-5.4245 7.40261,-4.01514 14.7604,29.56473 11.99613,54.74864 26.70096,136.22448 25.26674,139.99678 -0.70258,1.84792 -3.58535,17.35783 -6.40616,34.46649 -2.82081,17.10864 -5.27425,31.25213 -5.45208,31.42995 -0.17782,0.17783 -7.3434,-52.11624 -15.9235,-116.20905 l 0,0 z"
           id="path3216"
           inkscape:connector-curvature="0" />
        <path
           style="fill:#0000ff;stroke:none"
           d="m 462.69269,826.20346 c -7.78394,-41.77511 -14.42422,-77.67084 -14.75618,-79.76829 l -0.60357,-3.81354 6.21669,1.51092 c 3.41918,0.83101 6.85954,2.09225 7.64526,2.80276 0.78571,0.7105 6.92897,24.86685 13.65168,53.68076 l 12.22312,52.38895 -2.40106,8.65897 c -1.32058,4.76243 -3.22063,15.57441 -4.22233,24.02662 -1.00169,8.45222 -2.2217,15.61514 -2.71113,15.91763 -0.48942,0.30249 -7.25854,-33.62967 -15.04248,-75.40478 l 0,0 z"
           id="path3218"
           inkscape:connector-curvature="0" />
        <path
           style="fill:#0000ff;stroke:none"
           d="m 477.03139,795.23778 c -5.43278,-24.35462 -9.49395,-44.66496 -9.02483,-45.13407 1.06144,-1.06144 12.23254,0.74136 13.07882,2.11067 0.34086,0.55153 3.58674,12.13634 7.21307,25.74402 l 6.59332,24.74125 -2.91987,11.54652 c -1.60593,6.35058 -2.91987,14.6384 -2.91987,18.41738 0,3.77898 -0.48214,6.86738 -1.07143,6.86312 -0.58929,-0.004 -5.51643,-19.93426 -10.94921,-44.28889 z"
           id="path3220"
           inkscape:connector-curvature="0" />
        <path
           style="fill:#0000ff;stroke:none"
           d="m 489.67872,773.26072 -5.76735,-21.98799 6.34114,-0.86915 c 9.80793,-1.34433 14.51077,-1.04796 14.54407,0.91656 0.0601,3.54638 -7.82617,43.92857 -8.57885,43.92857 -0.42442,0 -3.36697,-9.8946 -6.53901,-21.98799 z"
           id="path3222"
           inkscape:connector-curvature="0" />
        <path
           style="fill:#0000ff;stroke:none"
           d="m 471.37457,739.23076 c -4.34812,-4.8813 -7.59223,-9.18856 -7.20911,-9.57167 1.1158,-1.11581 34.79748,16.0066 34.00598,17.28727 -0.39413,0.63772 -4.80588,1.15949 -9.80389,1.15949 l -9.08729,0 -7.90569,-8.87509 z"
           id="path3224"
           inkscape:connector-curvature="0" />
        <path
           style="fill:#0000ff;stroke:none"
           d="m 466.82741,751.47451 c -0.60408,-3.05519 -0.55466,-3.55027 0.32091,-3.21429 0.56925,0.21844 1.73191,0.4292 2.58371,0.46836 1.40638,0.0647 1.38508,0.11675 -0.23179,0.5667 -1.54928,0.43114 -1.7509,0.83934 -1.55242,3.14308 0.32661,3.791 -0.28414,3.26558 -1.12041,-0.96385 z"
           id="path3226"
           inkscape:connector-curvature="0" />
        <path
           style="fill:#0000ff;stroke:none"
           d="m 470.42467,747.11756 c -2.2716,-0.50944 -3.36438,-1.26384 -4.50568,-3.11051 -0.8287,-1.34087 -4.97963,-5.66744 -9.22428,-9.61461 -9.29333,-8.642 -16.74219,-16.88452 -16.13972,-17.85935 0.25868,-0.41853 2.99843,0.57562 6.65417,2.41455 5.35025,2.69131 7.00591,4.00595 11.90584,9.4536 3.13026,3.48016 8.39306,9.30079 11.6951,12.93472 6.48297,7.13455 6.47066,7.31917 -0.38543,5.7816 z"
           id="path3228"
           inkscape:connector-curvature="0" />
        <path
           style="fill:#0000ff;stroke:none"
           d="m 453.6715,741.9122 c -5.15808,-1.38624 -5.6383,-1.69068 -8.51409,-5.39767 -1.67623,-2.16072 -9.00156,-9.95536 -16.27852,-17.32143 -15.05398,-15.23834 -15.25375,-16.19621 -1.89412,-9.08221 8.00879,4.26469 8.23711,4.45844 21.41073,18.16956 15.0369,15.65042 15.29806,16.32518 5.276,13.63175 l 0,0 z"
           id="path3230"
           inkscape:connector-curvature="0" />
        <path
           style="fill:#0000ff;stroke:none"
           d="m 423.51941,736.71419 c -3.85582,-3.31426 -7.54657,-7.28148 -9.43607,-10.14292 -1.70682,-2.58478 -6.24993,-9.15073 -10.0958,-14.59099 l -6.9925,-9.8914 2.85097,-3.14426 2.85098,-3.14425 14.87539,14.82136 c 8.18147,8.15175 17.43343,17.60466 20.55992,21.00646 l 5.68452,6.18509 -6.62694,2.20777 c -3.64482,1.21427 -6.78686,2.19172 -6.98232,2.17211 -0.19546,-0.0196 -3.20512,-2.48515 -6.68815,-5.47897 l 0,0 z"
           id="path3232"
           inkscape:connector-curvature="0" />
        <path
           style="fill:#0000ff;stroke:none"
           d="m 407.35218,729.99054 c -3.33928,-0.76722 -6.43952,-1.78282 -6.88941,-2.2569 -0.44989,-0.47409 -5.62214,-7.30441 -11.4939,-15.17851 l -10.67592,-14.31654 3.14304,-2.73411 c 1.72867,-1.50376 3.5773,-2.7756 4.10807,-2.82632 1.23181,-0.11769 10.85083,11.04716 15.58146,18.0855 1.99388,2.96655 5.61226,8.12587 8.04084,11.46515 2.42858,3.33929 4.79306,6.79465 5.25441,7.67857 1.02084,1.95589 1.07943,1.9552 -7.06859,0.0832 z"
           id="path3234"
           inkscape:connector-curvature="0" />
        <path
           style="fill:#0000ff;stroke:none"
           d="m 381.27773,722.87618 c -8.82861,-8.97927 -28.8979,-30.83239 -28.91383,-31.48379 -0.006,-0.26361 2.43616,-0.58504 5.42802,-0.71429 5.40572,-0.23353 5.47829,-0.21255 11.60714,3.35574 l 6.16741,3.59074 11.658,15.58459 c 6.4119,8.57153 11.55476,15.67277 11.42857,15.78055 -0.12618,0.10778 -2.48079,0.41021 -5.23245,0.67205 l -5.00303,0.47609 -7.13983,-7.26168 z"
           id="path3236"
           inkscape:connector-curvature="0" />
        <path
           style="fill:#0000ff;stroke:none"
           d="m 357.358,714.92579 c -11.78891,-11.47504 -21.43041,-21.03512 -21.42555,-21.24463 0.0175,-0.75406 4.83445,-3.48479 7.39352,-4.19138 3.9459,-1.08951 3.61288,-1.40702 38.4883,36.6949 l 4.10495,4.48471 -3.56341,2.56006 -3.56341,2.56005 -21.4344,-20.86371 z"
           id="path3238"
           inkscape:connector-curvature="0" />
        <path
           style="fill:#0000ff;stroke:none"
           d="m 362.35218,734.2191 c -2.55357,-2.02159 -8.17857,-6.87957 -12.5,-10.79551 -4.32143,-3.91594 -13.71449,-12.13276 -20.87348,-18.25961 l -13.01634,-11.13973 3.31307,-3.36364 3.31307,-3.36365 5.7747,4.02707 c 3.17608,2.21489 9.78048,7.7442 14.67644,12.28736 10.82333,10.0434 33.18128,32.1559 32.80133,32.44122 -0.34128,0.25628 -7.70578,1.89942 -8.36471,1.8663 -0.26467,-0.0133 -2.57051,-1.67821 -5.12408,-3.69981 z"
           id="path3240"
           inkscape:connector-curvature="0" />
        <path
           style="fill:#0000ff;stroke:none"
           d="m 349.49504,741.00086 c -1.76786,-1.4457 -7.56744,-6.82334 -12.88797,-11.9503 -5.32052,-5.12696 -15.98384,-14.78603 -23.69625,-21.4646 l -14.02258,-12.14286 2.95212,-3.03572 c 1.62367,-1.66964 3.23445,-3.03571 3.57952,-3.03571 1.2939,0 11.32091,7.44182 19.67419,14.60174 4.75818,4.07842 15.28839,13.30969 23.40046,20.51393 8.11208,7.20424 15.24461,13.38539 15.85006,13.73589 0.8299,0.48042 -0.29068,1.2214 -4.55293,3.01062 -3.10957,1.30534 -5.97519,2.37835 -6.36805,2.38446 -0.39286,0.006 -2.16071,-1.17174 -3.92857,-2.61745 z"
           id="path3242"
           inkscape:connector-curvature="0" />
        <path
           style="fill:#0000ff;stroke:none"
           d="m 339.71279,742.18582 c -4.82168,-0.62777 -4.30997,-0.29703 -18.80269,-12.15271 -4.11757,-3.36835 -9.09363,-7.20767 -11.05792,-8.53182 -8.1987,-5.52687 -36.11876,-26.62539 -35.92476,-27.14749 0.11576,-0.31156 1.81188,-1.84649 3.76915,-3.41097 l 3.55868,-2.8445 8.22704,4.14993 c 7.79811,3.93357 9.17667,4.99539 26.44132,20.36617 10.01786,8.91894 21.51342,19.39154 25.5457,23.27246 8.2309,7.92194 8.31773,7.61056 -1.75652,6.29893 z"
           id="path3244"
           inkscape:connector-curvature="0" />
        <path
           style="fill:#0000ff;stroke:none"
           d="m 313.06647,735.36067 c -4.91072,-3.71677 -12.30357,-9.04576 -16.42857,-11.84221 -4.125,-2.79644 -15.47716,-10.72172 -25.22701,-17.61172 l -17.72701,-12.52728 1.65558,-1.2649 c 4.08786,-3.12322 5.06669,-3.10723 10.70748,0.17488 3.91359,2.27713 62.52273,45.67477 66.62667,49.33429 0.37709,0.33625 -1.84434,0.58056 -5,0.5499 l -5.67857,-0.0552 -8.92857,-6.75777 z"
           id="path3246"
           inkscape:connector-curvature="0" />
        <path
           style="fill:#0000ff;stroke:none"
           d="m 294.37613,730.94771 c -9.29754,-6.1704 -26.56996,-17.48675 -38.38315,-25.14747 -11.81319,-7.66071 -21.4829,-14.15328 -21.48823,-14.42793 -0.005,-0.27465 1.09137,-1.3392 2.43712,-2.36566 l 2.44684,-1.86629 5.62789,3.19338 c 6.09049,3.45587 72.53894,50.13077 72.93082,51.22827 0.13096,0.36674 -1.31547,0.6528 -3.21429,0.6357 -3.24313,-0.0292 -4.47694,-0.71107 -20.357,-11.25 l 0,0 z"
           id="path3248"
           inkscape:connector-curvature="0" />
        <path
           style="fill:#ff0000;stroke:none"
           d="m 555.92361,746.70746 c -4.91222,-1.3475 -30.43417,-1.5512 -41.20669,-0.32889 l -7.27812,0.82582 -25.74505,-12.38992 c -14.15978,-6.81445 -26.15248,-12.71872 -26.65045,-13.1206 -1.61469,-1.30308 -13.94122,-7.26258 -14.29339,-6.9104 -0.18796,0.18795 -5.12755,-2.04452 -10.97688,-4.96106 -5.84932,-2.91653 -11.69533,-5.70295 -12.99114,-6.19203 -2.15126,-0.81196 -2.31466,-1.0822 -1.88028,-3.10969 0.61967,-2.89238 0.88728,-3.29188 2.20508,-3.29188 4.47789,0 54.96857,11.98012 71.31692,16.92165 20.40337,6.1672 44.10938,16.81967 67.85715,30.4921 6.04092,3.47798 5.98445,3.8045 -0.35715,2.0649 z"
           id="path3250"
           inkscape:connector-curvature="0" />
        <path
           style="fill:#ff0000;stroke:none"
           d="m 450.64316,1052.0502 c 1.57226,-10.5895 12.61299,-66.85807 13.82379,-70.45227 0.81024,-2.40517 2.93547,-13.61322 4.72274,-24.90679 4.11373,-25.99418 6.20769,-36.7644 8.87054,-45.62537 1.29124,-4.29673 2.68607,-11.65524 3.57061,-18.83696 1.89902,-15.41836 3.97864,-26.94354 6.05769,-33.57142 0.92424,-2.94643 1.69061,-5.83929 1.70304,-6.42858 0.10887,-5.16012 2.69839,-20.36312 9.94432,-58.38274 4.65974,-24.44979 8.62352,-44.60543 8.8084,-44.79031 0.93232,-0.93233 21.7291,-1.9514 33.11926,-1.6229 16.02026,0.46205 20.62362,1.72816 37.25243,10.24594 18.58313,9.51885 41.41785,28.90483 42.81419,36.34792 1.05414,5.61905 -2.15572,18.19222 -7.79041,30.51538 l -2.52745,5.52757 -28.75543,0.18672 -28.75543,0.18671 -17.24307,102.5 c -9.4837,56.375 -17.14221,102.6269 -17.01891,102.7819 0.22899,0.288 45.52619,4.3111 48.90152,4.3432 1.68891,0.016 2.00075,0.4947 3.38604,5.1963 0.83918,2.8482 1.72976,6.2232 1.97905,7.5 l 0.45325,2.3215 -61.88345,0 -61.88344,0 0.45072,-3.0358 0,0 z m 41.75804,-85.71424 c 2.43029,-7.5625 4.66578,-14.59569 4.96776,-15.62931 0.61269,-2.09715 1.96788,-1.79773 -14.30249,-3.16003 l -5.35714,-0.44855 -2.69516,15.60109 c -1.48234,8.5806 -2.6877,16.00287 -2.67858,16.49394 0.0122,0.65887 2.06466,0.89286 7.83175,0.89286 l 7.81515,0 4.41871,-13.75 0,0 z m 7.14286,-40 c 2.43029,-7.5625 4.66578,-14.59569 4.96775,-15.62931 0.61269,-2.09715 1.96789,-1.79773 -14.30248,-3.16003 l -5.35715,-0.44855 -2.69516,15.60109 c -1.48234,8.5806 -2.68769,16.00287 -2.67857,16.49394 0.0122,0.65887 2.06466,0.89286 7.83174,0.89286 l 7.81516,0 4.41871,-13.75 z m 7.14285,-41.42857 c 2.43029,-7.5625 4.66578,-14.59569 4.96776,-15.62931 0.61269,-2.09715 1.96788,-1.79773 -14.30249,-3.16003 l -5.35714,-0.44855 -2.69516,15.60109 c -1.48234,8.5806 -2.6877,16.00287 -2.67857,16.49394 0.0122,0.65887 2.06466,0.89286 7.83174,0.89286 l 7.81515,0 4.41871,-13.75 z"
           id="path3252"
           inkscape:connector-curvature="0" />
        <path
           style="fill:#ff0000;stroke:none"
           d="m 528.42361,1085.425 c -7.46428,-1.3022 -28.76595,-4.9183 -47.33703,-8.0356 -18.57109,-3.1174 -33.90002,-5.8024 -34.06431,-5.9667 -0.16428,-0.1643 0.54844,-3.9072 1.58383,-8.3177 l 1.88252,-8.019 61.60391,0 c 45.40525,0 61.73648,0.2144 62.10805,0.8157 0.27728,0.4486 0.66145,3.8233 0.85373,7.4993 0.64532,12.3373 -2.45968,16.4016 -15.67385,20.5163 -9.18001,2.8584 -13.8806,4.0171 -15.95685,3.9331 -0.78571,-0.032 -7.53571,-1.1232 -15,-2.4254 z"
           id="path3254"
           inkscape:connector-curvature="0" />
        <path
           style="fill:#000000;stroke:none"
           d="m 475.63854,969.55024 c 0.90269,-5.00893 2.03459,-11.59821 2.51532,-14.64285 l 0.87406,-5.53572 3.26928,0.005 c 5.76607,0.009 12.91213,0.89449 12.91213,1.60006 0,0.37635 -1.94747,6.75844 -4.32771,14.18242 l -4.3277,13.49816 -6.27832,0 -6.27832,0 1.64126,-9.10715 z"
           id="path3258"
           inkscape:connector-curvature="0" />
        <path
           style="fill:#000000;stroke:none"
           d="m 482.78139,929.55024 c 0.9027,-5.00893 2.03459,-11.59821 2.51533,-14.64285 l 0.87406,-5.53572 3.26927,0.005 c 5.76608,0.009 12.91213,0.89449 12.91213,1.60006 0,0.37635 -1.94746,6.75844 -4.3277,14.18242 l -4.3277,13.49816 -6.27832,0 -6.27832,0 1.64125,-9.10715 z"
           id="path3260"
           inkscape:connector-curvature="0" />
        <path
           style="fill:#000000;stroke:none"
           d="m 489.92425,888.12167 c 0.90269,-5.00893 2.03459,-11.59821 2.51533,-14.64286 l 0.87406,-5.53571 3.26927,0.005 c 5.76607,0.009 12.91213,0.89449 12.91213,1.60006 0,0.37635 -1.94747,6.75844 -4.3277,14.18242 l -4.32771,13.49815 -6.27832,0 -6.27832,0 1.64126,-9.10714 z"
           id="path3262"
           inkscape:connector-curvature="0" />
        <path
           style="fill:#ffff00;stroke:none"
           d="m 15.45064,1032.8619 c 0.283637,-0.9722 0.820363,-6.3278 1.192724,-11.9013 l 0.67702,-10.1336 36.843969,-5.8568 c 20.264183,-3.2212 37.046924,-5.65379 37.294978,-5.40573 0.668744,0.66873 5.618968,19.05463 5.233942,19.43973 -0.374108,0.3741 -79.188577,15.6255 -80.747734,15.6255 -0.555832,0 -0.778537,-0.7955 -0.494899,-1.7678 z"
           id="path3264"
           inkscape:connector-curvature="0" />
        <path
           style="fill:#ffff00;stroke:none"
           d="m 13.493794,1001.5472 c 0.375087,-4.86134 0.918894,-10.23559 1.208461,-11.94276 l 0.526486,-3.10395 17.722938,-2.81579 c 10.593788,-1.68312 17.977773,-2.43595 18.356453,-1.87153 0.35956,0.53592 9.128737,0.9117 20.278557,0.86897 l 19.645043,-0.0753 1.436172,5.85618 c 0.789896,3.22091 1.240554,6.05181 1.001464,6.2909 -0.668539,0.66854 -46.08222,9.22798 -61.425696,11.57728 -7.500383,1.1485 -14.426386,2.5306 -15.39112,3.0715 -3.734998,2.0939 -4.066585,1.3184 -3.358758,-7.8555 z"
           id="path3266"
           inkscape:connector-curvature="0" />
        <path
           style="fill:#ffff00;stroke:none"
           d="m 10.367331,979.82894 c 0.317024,-2.36123 0.868754,-7.73219 1.226066,-11.93547 l 0.649657,-7.64232 36.516813,-5.7646 c 20.084248,-3.17053 36.808774,-5.75452 37.165615,-5.7422 1.124112,0.0388 4.201754,14.26919 3.266432,15.10331 -0.486627,0.43398 -9.547021,2.28311 -20.134209,4.10918 l -19.249433,3.32014 0.393041,2.67796 0.393041,2.67796 -19.529405,3.74635 c -10.741172,2.06049 -19.921944,3.74556 -20.401715,3.74459 -0.479771,-9.6e-4 -0.612927,-1.93367 -0.295903,-4.2949 z"
           id="path3268"
           inkscape:connector-curvature="0" />
        <path
           style="fill:#ffff00;stroke:none"
           d="m 8.4935425,945.98883 1.0216973,-11.86929 13.1319832,-2.2638 c 9.912223,-1.70875 18.952319,-2.40416 36.870568,-2.83627 13.056221,-0.31486 24.229458,-0.72956 24.829416,-0.92155 0.942055,-0.30146 5.016745,13.38274 4.22167,14.17782 -0.297748,0.29774 -79.1570477,15.58238 -80.395493,15.58238 -0.3858463,0 -0.241775,-5.34118 0.3201585,-11.86929 z"
           id="path3270"
           inkscape:connector-curvature="0" />
        <path
           style="fill:#ffff00;stroke:none"
           d="m 2.9492482,931.06619 c 0,-2.77603 2.0519356,-23.07389 2.3641282,-23.38609 0.1220273,-0.12202 8.3904646,-1.58747 18.3743066,-3.25655 18.688406,-3.12429 53.053587,-6.74869 55.411057,-5.84404 1.643862,0.63081 3.856859,11.05087 2.522157,11.87576 -0.516639,0.3193 -9.557512,2.10477 -20.090827,3.96771 l -19.151481,3.38716 0.575436,3.60901 0.575434,3.60901 -20.290105,4.16324 -20.2901058,4.16323 0,-2.28844 z"
           id="path3272"
           inkscape:connector-curvature="0" />
        <path
           style="fill:#ffff00;stroke:none"
           d="m 0.24823871,903.08818 c 0.31122335,-1.82261 0.86513459,-7.19989 1.23091369,-11.94951 l 0.6650529,-8.63568 36.5154747,-5.78291 c 20.083512,-3.18061 36.797326,-5.77216 37.141809,-5.759 0.731424,0.0279 3.376627,9.01576 2.796053,9.50038 -0.215561,0.17994 -8.574165,2.3572 -18.574675,4.83837 l -18.182746,4.51122 0,4.38655 0,4.38655 -16.667517,3.20697 c -9.167134,1.76383 -18.6526263,3.52285 -21.0788714,3.90893 l -4.41135468,0.70197 0.56586079,-3.31384 z"
           id="path3274"
           inkscape:connector-curvature="0" />
        <path
           style="fill:#ffff00;stroke:none"
           d="m -1.6691239,870.73246 c 0.3809568,-5.69473 0.90150189,-11.07642 1.15676704,-11.95929 0.35810514,-1.23857 4.45982386,-2.24103 17.95704986,-4.3887 15.67425,-2.49408 19.549743,-2.74727 37.27632,-2.43538 10.880863,0.19145 20.079578,0.64488 20.441588,1.00763 0.80078,0.80241 3.8013,12.05087 3.338116,12.51406 -0.33359,0.33359 -78.73868906,15.61575 -80.1165823,15.61575 -0.410249,0 -0.4342154,-4.65933 -0.053259,-10.35407 z"
           id="path3276"
           inkscape:connector-curvature="0" />
        <path
           style="fill:#ffff00;stroke:none"
           d="m -5.8137347,849.17008 c 0.3435409,-3.28035 0.9142276,-8.72358 1.2681927,-12.09607 l 0.6435729,-6.13179 20.3456631,-3.21843 c 16.923616,-2.67709 23.170738,-3.21736 37.142032,-3.21211 18.411303,0.007 18.411506,0.007 19.57224,6.21896 0.813012,4.35105 2.401505,3.80788 -20.206167,6.90928 -20.81728,2.85579 -19.370501,2.37062 -18.907047,6.34043 l 0.39243,3.36146 -17.511734,3.31808 c -9.6314539,1.82494 -18.8284491,3.57826 -20.437768,3.89627 l -2.9260343,0.57818 0.6246196,-5.96426 z"
           id="path3278"
           inkscape:connector-curvature="0" />
        <path
           style="fill:#ffff00;stroke:none"
           d="m -7.7828687,826.79083 c 0.2836376,-0.97227 0.8217401,-6.34731 1.1957834,-11.94453 L -5.9070064,804.66953 11.950451,801.887 c 15.910653,-2.47919 20.018612,-2.7463 37.681069,-2.45014 10.902985,0.18281 20.107275,0.61699 20.453978,0.96484 0.346701,0.34785 0.878801,2.16612 1.182443,4.04061 l 0.552075,3.40816 -18.525481,2.52538 -18.525482,2.52538 -0.505076,3.99199 -0.505076,3.99198 -19.697975,3.80165 c -23.0710964,4.45265 -22.5132928,4.39893 -21.8437947,2.10398 z"
           id="path3280"
           inkscape:connector-curvature="0" />
        <path
           style="fill:#ffff00;stroke:none"
           d="m -9.7288597,793.59856 c 0.3935449,-5.49546 0.9347379,-10.92876 1.2026512,-12.07399 0.448093,-1.91542 3.4050979,-2.54901 36.9125345,-7.90911 20.03398,-3.20479 36.75519,-5.44977 37.158244,-4.98884 0.989619,1.13172 4.141956,12.72431 3.60586,13.26041 -0.234254,0.23425 -9.202315,1.66652 -19.929027,3.18282 l -19.503112,2.7569 0.247517,3.9959 0.247518,3.99591 -17.420111,3.30721 c -9.5810614,1.81896 -18.7290484,3.56761 -20.3288608,3.88588 l -2.9087502,0.57867 0.7155363,-9.99176 z"
           id="path3282"
           inkscape:connector-curvature="0" />
        <path
           style="fill:#ffffff;stroke:none"
           d="m 544.39101,1036.3972 c -12.50064,-1.1093 -22.82386,-2.0941 -22.94049,-2.1884 -0.11664,-0.094 7.41417,-45.60877 16.73513,-101.14313 l 16.9472,-100.97154 23.67066,-0.27178 c 21.2934,-0.24448 23.45314,-0.11942 21.5048,1.24525 -1.80131,1.26169 -2.27959,2.92264 -2.84162,9.86822 -6.84547,84.5967 -16.40429,152.84362 -26.88447,191.94648 -0.5584,2.0834 -1.56595,3.7304 -2.23902,3.6599 -0.67307,-0.071 -11.45155,-1.0357 -23.95219,-2.145 z m 25.09167,-66.96985 c 1.60446,-3.52142 1.47,-6.65406 -0.40021,-9.32416 -3.2743,-4.67472 -7.79436,-1.87605 -7.79436,4.826 0,2.2037 0.57221,4.6962 1.27159,5.5389 2.01049,2.42249 5.59022,1.88435 6.92298,-1.04074 z m -22.32418,0.30006 c 2.82544,-3.5872 1.94033,-12.01963 -1.39602,-13.29991 -2.41474,-0.92662 -5.19083,1.15414 -5.91032,4.42998 -1.09856,5.00169 1.19981,10.13262 4.53885,10.13262 0.97511,0 2.22048,-0.56821 2.76749,-1.26269 z m 25.96458,-25.22604 c 4.2027,-6.00019 -0.68437,-15.74877 -5.64465,-11.25978 -1.26855,1.14803 -1.87421,3.09119 -1.87421,6.01312 0,6.77318 4.33223,9.79621 7.51886,5.24666 l 0,0 z m -18.52465,-2.42821 c 2.26753,-2.73221 1.72797,-9.38933 -0.93583,-11.54635 -2.84758,-2.30584 -4.68429,-1.68105 -6.26307,2.13047 -2.83591,6.84648 2.99826,14.47734 7.1989,9.41588 l 0,0 z m 19.26,-18.21171 c 3.73598,-3.38101 1.70323,-13.4805 -2.71325,-13.4805 -4.19026,0 -6.02826,9.61423 -2.51051,13.13198 2.44995,2.44995 2.87069,2.47802 5.22376,0.34852 z m -15.7169,-8.37058 c 1.3797,-4.26869 0.48952,-7.99867 -2.36056,-9.89105 -1.91826,-1.27368 -2.37667,-1.2017 -4.24484,0.66647 -4.03718,4.03718 -1.57969,13.70732 3.30648,13.01097 1.46159,-0.2083 2.54397,-1.45062 3.29892,-3.78639 z m 19.83298,-15.46398 c 2.28066,-1.75089 3.1172,-7.7674 1.50985,-10.85914 -3.08134,-5.92699 -9.49612,-1.23205 -8.28114,6.06091 0.52014,3.12218 2.70326,6.06092 4.50252,6.06092 0.34321,0 1.36415,-0.56821 2.26877,-1.26269 z m -17.62309,-2.97995 c 2.14067,-2.14067 1.43837,-6.67426 -1.3132,-8.47716 -2.33938,-1.53282 -2.71138,-1.53282 -5.05076,0 -1.69022,1.10748 -2.52538,2.58237 -2.52538,4.45983 0,3.50883 1.66187,5.22951 5.05076,5.22951 1.44452,0 3.17188,-0.54548 3.83858,-1.21218 z"
           id="path3286"
           inkscape:connector-curvature="0" />
        <path
           style="fill:#ffffff;stroke:none"
           d="m 16.436822,1028.3163 c 0.350351,-2.9169 0.647913,-7.3489 0.66125,-9.849 0.01334,-2.5002 0.430441,-5.1874 0.9269,-5.9716 0.974199,-1.539 8.506923,-2.9059 47.890515,-8.6903 13.241451,-1.9448 24.440948,-3.31 24.887771,-3.0339 1.121732,0.6933 5.371558,16.7308 4.630036,17.4723 -0.660051,0.6601 -74.65804,15.2541 -77.725001,15.3291 -1.713222,0.042 -1.843302,-0.4959 -1.271471,-5.2566 z"
           id="path3296"
           inkscape:connector-curvature="0" />
        <path
           style="fill:#ffffff;stroke:none"
           d="m 14.403402,998.76074 c 0.368026,-6.01492 0.897751,-11.16483 1.177165,-11.44425 0.279415,-0.27941 7.090341,-1.49624 15.135392,-2.70405 12.755495,-1.915 17.536821,-2.1338 37.362722,-1.70977 l 22.735357,0.48625 1.01376,3.64958 c 1.688013,6.07692 1.365894,7.01935 -2.763045,8.08392 -5.495737,1.41697 -21.818404,4.55545 -47.729708,9.17738 -12.500638,2.2297 -23.824711,4.3563 -25.164607,4.7256 l -2.436175,0.6716 0.669139,-10.93626 0,0 z"
           id="path3298"
           inkscape:connector-curvature="0" />
        <path
           style="fill:#ffffff;stroke:none"
           d="m 11.515864,972.75787 c 0.452673,-6.66407 1.181252,-10.73163 2.04438,-11.4135 1.195952,-0.94481 66.038516,-11.59434 70.478748,-11.5752 2.035923,0.009 3.288691,2.7206 4.265266,9.23287 l 0.674046,4.49485 -17.508176,3.28262 c -9.629498,1.80544 -18.579942,3.51236 -19.889879,3.79317 -1.890678,0.4053 -2.284886,1.01701 -1.912101,2.96711 0.319178,1.66967 -0.05042,2.60989 -1.153833,2.93525 -2.65128,0.78178 -34.601216,6.63689 -36.215933,6.63689 -1.256793,0 -1.377422,-1.59612 -0.782518,-10.35406 z"
           id="path3300"
           inkscape:connector-curvature="0" />
        <path
           style="fill:#ffffff;stroke:none"
           d="m 8.7266924,956.09035 c -0.5500645,-1.03484 1.0098324,-20.50851 1.6979076,-21.19659 1.943562,-1.94356 29.19545,-4.67851 58.372904,-5.8582 l 15.845703,-0.64067 1.579428,5.31851 c 2.003005,6.74485 1.980974,7.72502 -0.18834,8.37933 -2.124881,0.6409 -74.900356,14.75524 -76.0800693,14.75524 -0.4536564,0 -1.0060465,-0.34093 -1.2275333,-0.75762 z"
           id="path3302"
           inkscape:connector-curvature="0" />
        <path
           style="fill:#ffffff;stroke:none"
           d="m 3.3139238,930.83654 c 0.2754505,-0.97227 0.8166586,-5.6316 1.2026847,-10.35406 1.0584704,-12.94884 0.581639,-12.40817 12.7173975,-14.41996 16.058558,-2.66208 40.500385,-5.72228 51.418656,-6.4378 11.006766,-0.72131 11.740791,-0.31181 12.313658,6.86959 l 0.26975,3.38156 -17.172593,3.31993 c -9.444926,1.82596 -18.242707,3.55114 -19.550624,3.83372 -2.050985,0.44313 -2.321505,0.99798 -1.967015,4.03444 0.339164,2.90518 0.04852,3.60311 -1.662579,3.99233 -6.009856,1.36707 -36.4859643,7.54802 -37.2166562,7.54802 -0.469424,0 -0.6281296,-0.7955 -0.352679,-1.76777 z"
           id="path3304"
           inkscape:connector-curvature="0" />
        <path
           style="fill:#ffffff;stroke:none"
           d="m 1.3990151,895.98628 c 0.8278906,-11.30045 1.166489,-12.63441 3.3696719,-13.27533 4.6503266,-1.35281 69.036681,-10.87613 70.287492,-10.39615 2.045847,0.78506 3.2286,6.77618 1.543356,7.81772 -0.724326,0.44766 -8.955151,2.71754 -18.290723,5.04417 l -16.973767,4.23024 0,4.35448 0,4.35447 -5.303301,1.08022 c -11.430082,2.32816 -32.419964,6.13409 -33.8297827,6.13409 -1.25202518,0 -1.37913237,-1.47915 -0.8029462,-9.34391 z"
           id="path3306"
           inkscape:connector-curvature="0" />
        <path
           style="fill:#ffffff;stroke:none"
           d="m -0.82229459,869.86194 c 0.30956569,-5.61794 1.00620396,-10.6578 1.54808504,-11.19968 0.54188105,-0.54188 5.92316635,-1.89558 11.95841155,-3.00823 13.351345,-2.46143 59.008064,-3.89381 61.379549,-1.92565 1.512517,1.25527 4.071147,10.08791 3.180314,10.97874 -0.577584,0.57759 -74.7988475,15.33956 -77.21962599,15.35833 -1.15058961,0.009 -1.30616511,-1.86584 -0.8467336,-10.20351 z"
           id="path3308"
           inkscape:connector-curvature="0" />
        <path
           style="fill:#ffffff;stroke:none"
           d="m -5.7879046,852.47915 c 0.295799,-1.21125 0.85567,-6.19801 1.2441577,-11.08168 0.5263701,-6.61698 1.120524,-9.09911 2.3319013,-9.74172 0.894058,-0.47427 9.9810165,-2.06544 20.1932416,-3.53592 18.331555,-2.6396 46.263071,-3.79253 51.512915,-2.12629 2.215461,0.70316 3.775231,4.5437 2.83765,6.987 -0.356992,0.9303 -4.521356,1.97108 -12.483311,3.11989 -6.571188,0.94814 -15.129594,2.26155 -19.018681,2.91868 l -7.071068,1.19481 0.01222,3.30478 c 0.0092,2.49152 -0.487954,3.41775 -2.020305,3.76382 -1.117892,0.25248 -9.305627,1.83328 -18.194969,3.5129 -8.8893424,1.67962 -16.9992451,3.24109 -18.0220058,3.46993 -1.4741084,0.32984 -1.7480848,-0.0404 -1.3217488,-1.7862 z"
           id="path3310"
           inkscape:connector-curvature="0" />
        <path
           style="fill:#ffffff;stroke:none"
           d="m -6.5302283,817.69945 c 0.3645545,-5.41694 1.0236545,-10.55494 1.4646664,-11.41777 1.3877863,-2.71517 22.8211059,-5.25429 48.5633599,-5.7531 24.447523,-0.47373 26.529679,-0.15101 27.369457,4.242 0.41964,2.1952 0.06188,2.60735 -2.654306,3.05786 -3.247591,0.53865 -32.626827,4.56771 -33.306954,4.56771 -0.211094,0 -0.666576,1.76834 -1.012182,3.92965 -0.473699,2.96235 -1.189272,4.06839 -2.907025,4.4933 -4.17622,1.03304 -35.2746901,6.72934 -36.7382982,6.72934 -1.1953789,0 -1.328357,-1.68186 -0.7787181,-9.84899 z"
           id="path3312"
           inkscape:connector-curvature="0" />
        <path
           style="fill:#ffffff;stroke:none"
           d="m -9.7858382,799.38485 c 0.2914567,-2.01092 0.8200106,-6.93112 1.1745641,-10.93379 0.6257262,-7.06402 0.738107,-7.30755 3.8297393,-8.29907 4.64284872,-1.48901 41.3002338,-7.46031 65.4101268,-10.65497 l 4.646336,-0.61566 1.653089,5.81101 c 0.9092,3.19606 1.318477,6.12009 0.909504,6.49784 -0.619,0.57175 -34.568982,5.95213 -37.557681,5.95213 -0.522754,0 -1.090241,1.92842 -1.261082,4.28538 l -0.31062,4.28537 -6.565991,1.18854 c -3.611296,0.6537 -12.391673,2.30249 -19.5119494,3.66398 l -12.9459566,2.47545 0.5299208,-3.65621 z"
           id="path3314"
           inkscape:connector-curvature="0" />
      </g>
      <text
         sodipodi:linespacing="125%"
         id="text3440"
         y="589.71234"
         x="-214.15234"
         style="font-size:40px;font-style:normal;font-weight:normal;line-height:125%;letter-spacing:0px;word-spacing:0px;fill:#000000;fill-opacity:1;stroke:none;font-family:Sans"
         xml:space="preserve"><tspan
           style="font-size:144px;font-style:normal;font-variant:normal;font-weight:normal;font-stretch:normal;text-align:start;line-height:125%;writing-mode:lr-tb;text-anchor:start;fill:#ff0000;font-family:Tempus Sans ITC;-inkscape-font-specification:Tempus Sans ITC"
           y="589.71234"
           x="-214.15234"
           id="tspan3442"
           sodipodi:role="line">Orgullo vallenato</tspan></text>
    </g>
  </g>
</svg>
