<?xml version="1.0" encoding="utf-8"?>
<!-- Generator: Adobe Illustrator 15.0.2, SVG Export Plug-In . SVG Version: 6.00 Build 0)  -->
<!DOCTYPE svg PUBLIC "-//W3C//DTD SVG 1.1//EN" "http://www.w3.org/Graphics/SVG/1.1/DTD/svg11.dtd">
<svg version="1.1" id="Layer_1" xmlns="http://www.w3.org/2000/svg" xmlns:xlink="http://www.w3.org/1999/xlink" x="0px" y="0px"
	 width="5952.76px" height="3968.5px" viewBox="0 0 5952.76 3968.5" enable-background="new 0 0 5952.76 3968.5"
	 xml:space="preserve">
<g>
	<g>
		<path fill="#1E5B97" d="M1658.964,2876.936c0-101.002,31.45-170.875,204.691-170.875c173.744,0,204.692,69.873,204.692,170.875
			c0,100.395-30.948,170.857-204.692,170.857C1690.414,3047.793,1658.964,2977.33,1658.964,2876.936z M1976.987,2876.344
			c0-78.689-11.487-129.191-113.332-129.191c-101.359,0-113.833,49.928-113.833,129.191c0,79.857,12.474,130.357,113.833,130.357
			C1965.5,3006.701,1976.987,2956.201,1976.987,2876.344z"/>
		<path fill="#1E5B97" d="M2097.936,3034.299c-14.982-3.529-17.473-5.877-17.473-24.066c0-25.27,8.978-23.496,28.457-20.574
			c24.965,3.549,75.877,11.164,123.314,11.164c57.419,0,100.356,0.592,100.356-42.848c0-35.842-18.477-38.172-81.88-42.293
			l-20.483-1.182c-103.833-6.453-147.274-19.965-147.274-109.211c0-90.43,77.884-95.699,163.762-95.699
			c54.909,0,121.324,7.637,134.299,9.965c14.479,2.365,16.97,5.879,16.97,24.088c0,19.961-4.981,23.475-18.979,21.145
			c-14.46-2.365-77.381-10.574-124.315-10.574c-52.921,0-86.363-0.592-86.363,38.172c0,35.232,17.473,34.623,84.874,40.502
			l16.972,1.184c90.374,7.043,144.298,12.328,144.298,105.697c0,84.551-54.928,106.27-175.249,106.27
			C2168.327,3046.037,2108.92,3036.646,2097.936,3034.299z"/>
		<path fill="#1E5B97" d="M2516.53,3040.16c-23.422,0-35.805-9.965-41.306-34.623l-57.385-252.506
			c-7.347-32.293-4.587-38.744,37.187-38.744c32.581,0,39.481,7.043,45.43,33.459l53.26,236.645
			c2.294,11.738,8.244,14.676,17.455,14.676h5.951c9.642,0,15.608-2.938,17.902-14.676l44.999-236.055
			c5.036-25.25,17.885-34.049,41.307-34.049h76.648c23.872,0,36.272,8.799,41.327,34.049l45.895,236.055
			c2.293,11.146,8.261,14.676,17.903,14.676h5.95c9.212,0,15.626-3.529,17.921-14.676l51.396-246.037
			c4.14-18.799,10.574-24.066,33.064-24.066c18.8,0,21.559,4.695,16.972,23.477l-59.211,268.346
			c-5.503,24.66-17.905,34.051-41.755,34.051h-77.598c-23.405,0-36.702-9.391-41.755-34.623l-44.068-236.055
			c-2.312-11.164-6.433-14.104-16.074-14.104h-6.415c-9.194,0-13.782,2.939-16.058,14.104l-45.019,236.627
			c-5.035,24.66-17.885,34.051-41.755,34.051H2516.53z"/>
		<path fill="#1E5B97" d="M2972.635,2925.664c0-67.527,13.476-121.559,149.783-121.559c135.804,0,149.782,54.031,149.782,121.559
			c0,66.934-13.979,120.965-149.782,120.965C2986.111,3046.629,2972.635,2992.598,2972.635,2925.664z M3188.313,2925.664
			c0-57.545-4.981-89.246-65.895-89.246c-60.912,0-65.913,31.701-65.913,89.246c0,57.543,5.001,88.672,65.913,88.672
			C3183.331,3014.336,3188.313,2983.207,3188.313,2925.664z"/>
		<path fill="#1E5B97" d="M3333.024,3040.16c-31.452,0-36.451-4.695-36.451-32.293v-149.73c0-22.311,3.494-37.58,44.945-44.621
			c31.954-5.861,80.877-9.41,117.327-9.41c11.972,0,14.983,2.939,14.983,19.391c0,14.086-1.506,20.555-13.495,20.555h-5.483
			c-24.964,0-56.416,2.922-68.404,5.859c-5.484,1.758-9.982,5.307-9.982,15.27v142.688c0,27.598-5.001,32.293-34.945,32.293
			H3333.024z"/>
		<path fill="#1E5B97" d="M3528.56,3040.16c-31.452,0-36.453-4.695-36.453-32.293v-260.715c0-27.598,4.5-32.865,34.965-32.865h7.975
			c31.45,0,36.955,5.268,36.955,32.865v260.715c0,27.598-5.001,32.293-34.947,32.293H3528.56z"/>
		<path fill="#1E5B97" d="M3596.425,2925.072c0-83.367,22.473-120.967,141.791-120.967c22.472,0,39.443,1.775,54.426,2.939
			c6.486,0.609,11.971-1.164,11.971-12.328v-47.564c0-27.598,5-32.865,34.963-32.865h7.975c31.953,0,36.952,5.268,36.952,32.865
			v252.506c0,22.313-3.494,32.867-43.94,39.336c-22.955,4.104-58.907,7.043-96.36,7.043
			C3622.895,3046.037,3596.425,3008.457,3596.425,2925.072z M3794.63,3008.457c5.001-1.164,9.982-2.92,9.982-12.92v-140.93
			c0-9.965-4.981-11.721-9.982-13.494c-4.48-1.166-25.949-4.105-50.429-4.105c-46.917,0-64.39,14.66-64.39,88.064
			c0,73.402,17.473,88.098,64.39,88.098C3768.681,3013.17,3790.149,3009.621,3794.63,3008.457z"/>
		<path fill="#1E5B97" d="M3926.85,2999.066c0-42.273,6.488-44.031,38.442-44.031c31.45,0,38.438,1.758,38.438,44.031
			c0,39.338-6.988,41.094-38.438,41.094C3933.338,3040.16,3926.85,3038.404,3926.85,2999.066z"/>
		<path fill="#1E5B97" d="M4046.13,3102.416v-251.914c0-22.311,3.494-32.883,43.942-39.336c22.977-4.121,58.907-7.061,96.361-7.061
			c121.326,0,147.776,37.6,147.776,120.967c0,83.385-22.957,120.965-141.791,120.965c-22.957,0-39.945-1.756-54.406-2.939
			c-6.506-0.572-11.988,1.184-11.988,12.33v46.988c0,27.598-5.002,32.867-34.946,32.867h-8.495
			C4051.132,3135.283,4046.13,3130.014,4046.13,3102.416z M4250.339,2925.072c0-73.404-16.971-88.064-64.406-88.064
			c-23.961,0-45.43,3.514-49.929,4.697c-4.98,1.182-9.979,2.938-9.979,12.902v140.93c0,10,4.999,11.756,9.979,13.512
			c4.499,1.184,25.968,4.121,49.929,4.121C4233.368,3013.17,4250.339,2998.475,4250.339,2925.072z"/>
		<path fill="#1E5B97" d="M4395.034,3040.16c-31.452,0-36.451-4.695-36.451-32.293v-260.715c0-27.598,4.497-32.865,34.962-32.865
			h7.976c31.451,0,36.953,5.268,36.953,32.865v260.715c0,27.598-5,32.293-34.945,32.293H4395.034z"/>
	</g>
	<path fill-rule="evenodd" clip-rule="evenodd" fill="#1E5B97" d="M3784.375,1153.27c0,0.942-1.698,1.507-2.733,0.754
		c11.312,68.814,85.451,278.08,84.932,372.248c-3.017,547.482-342.932,837.72-794.453,857.894c7.867-93.084-0.839-182.299,0-265.729
		c95.957-7.73,231.936-18.146,307.91-17.535c-30.495,45.482-77.107,214.076-51.42,209.643
		c80.217-13.854,121.717-148.186,147.334-215.674c88.326-23.553,257.906-84.459,271.48-135.74
		c-28.518-18.147-162.889-9.05-223.879,23.472c21.538-96.432,54.815-182.685,51.94-322.101
		c77.483-41.71,259.224-150.303,248.856-184.001c-33.559-5.138-192.486,29.221-247.348,70.886
		c-4.135-120.219-14.563-195.363-51.281-282.038c60.188-31.201,213.696-109.817,206.628-125.182
		c-4.808-10.369-173.444,6.032-251.449,36.292c-51.607-102.464-149.267-267.474-200.876-302.542
		c218.833,20.269,365.744,181.367,501.625,280.107C3781.31,1151.951,3783.008,1151.479,3784.375,1153.27
		c0.376-51.845-63.485-137.72-89.458-168.638c-120.987-144.411-386.623-243.154-599.939-253.947
		c-494.181-24.98-897.581,358.817-925.717,826.695c-2.358,40.251-3.301,87.1,0,129.942
		c33.697,429.981,382.898,755.854,794.312,803.081c248.716,28.609,513.642-69.473,657.063-188.953
		C3908.9,2061.406,4059.245,1518.258,3784.375,1153.27z M3066.368,837.015c47.179,6.316,95.159,11.971,142.902,17.676
		c47.933,125.605,121.835,197.718,158.884,334.683c-97.616,23.651-205.26,35.103-301.786,37.327
		C3058.59,1092.423,3054.304,943.296,3066.368,837.015z M3054.96,1338.922c131.877-1.508,243.958-15.364,349.392-44.209
		c37.141,81.681,57.639,158.976,56.369,280.435c-129.945,25.216-261.253,48.97-411.507,53.164
		C3050.343,1531.079,3058.497,1441.057,3054.96,1338.922z M3003.588,842.907c-17.815,103.359-34.502,259.65-57.219,383.794
		c-75.883-4.241-148.652-11.688-222.838-17.673c51.091-140.17,111.23-230.24,211.433-360.229
		C2958.575,839.937,2974.271,838.241,3003.588,842.907z M2940.715,1628.312c-116.787-19.063-216.416-27.651-325.727-41.334
		c15.125-96.573,35.448-197.599,62.868-271.667c86.678,6.879,164.966,12.23,262.858,17.72
		C2947.454,1408.726,2936.424,1521.699,2940.715,1628.312z M2940.715,1740.488c4.005,90.35,8.812,179.807,17.107,265.729
		c-94.387-7.043-170.475-16.732-257.104-23.614c-40.485-76.26-67.493-166.472-80.033-271.669
		C2716.647,1730.777,2823.92,1744.869,2940.715,1740.488z M2792.154,890.134c9.663-2.122,17.156-9.191,17.816-1.934
		c-81.773,74.941-143.659,190.79-194.982,297.215c-57.31-14.188-108.841-27.93-165.719-41.382
		C2526.378,1021.018,2657.217,953.431,2792.154,890.134z M2374.99,1238.532c67.07,15.317,123.768,41.429,194.276,53.163
		c-24.742,82.719-40.485,174.72-57.124,265.685c-82.431-17.063-145.966-43.173-222.886-76.73
		C2304.905,1386.573,2336.152,1308.616,2374.99,1238.532z M2277.852,1592.823c70.274,35.725,151.481,59.998,234.29,82.714
		c6.223,82.625,27.62,194.044,57.124,271.623c-93.511-17.439-168.872-39.213-251.446-82.67
		C2296.232,1782.48,2272.288,1702.875,2277.852,1592.823z M2397.848,2018.047c78.193,21.49,152.521,47.037,234.247,64.947
		c47.557,114.201,113.022,209.971,228.636,253.896c-18.9-90.729-60.801-157.654-97.139-230.283
		c72.867,5.371,142.809,13.715,217.135,17.725c9.429,96.475,35.068,176.316,57.127,259.834
		C2732.25,2357.443,2528.076,2225.992,2397.848,2018.047z M3049.214,1746.377c147.096-7.541,301.357-38.837,411.507-64.949
		c6.456,107.321-28.846,222.041-57.22,312.958c-109.955,8.389-225.148,11.357-337.133,17.723
		C3060.521,1923.688,3056.849,1833.005,3049.214,1746.377z"/>
</g>
</svg>
