<?xml version="1.0" standalone="no"?>
<!DOCTYPE svg PUBLIC "-//W3C//DTD SVG 1.1//EN" "http://www.w3.org/Graphics/SVG/1.1/DTD/svg11.dtd">
<svg version="1.1" xmlns="http://www.w3.org/2000/svg" viewBox="0 0 410 119" stroke="rgb(0,0,0)" fill="none" preserveAspectRatio="xMinYMin meet">
<g stroke-miterlimit="10">
<g transform="matrix(0.1,0,0,-0.1,0,119)">
<path stroke="none" fill="rgb(0,0,0)" d="M0,0L0,0L0,0L0,0Z"/>
<path stroke="none" fill="rgb(202,3,3)" d="M972.45,56.0899C940.15,115.13,969.22,194.06,1037.37,232.4C1105.5,270.75,1186.94,253.96,1219.23,194.94C1251.53,135.88,1222.45,56.99,1154.31,18.6299C1086.18,-19.7299,1004.77,-2.9699,972.45,56.0899"/>
<path stroke="none" fill="rgb(202,3,3)" d="M123.27,384.61C55.9699,384.72,0.79,448.2,0,526.39C-0.8199,604.58,53.1099,667.87,120.39,667.76C187.7,667.63,242.84,604.15,243.66,525.97C244.47,447.79,190.6,384.5,123.27,384.61"/>
<path stroke="none" fill="rgb(202,3,3)" d="M710.5,1062.55C720.31,1129.15,791.08,1174.6,868.58,1164.1C946.06,1153.63,1000.91,1091.14,991.09,1024.59C981.27,958.0,910.5,912.58,833.01,923.06C755.53,933.52,700.67,995.96,710.49,1062.56"/>
<path stroke="none" fill="rgb(202,3,3)" d="M957.03,391.18C865.35,313.53,729.51,323.2,653.62,412.81C577.74,502.41,590.53,638.0,682.23,715.65C773.9,793.31,909.75,783.61,985.64,694.01C1061.52,604.41,1048.72,468.82,957.03,391.19"/>
<path stroke="none" fill="rgb(202,6,8)" d="M743.95,599.17C717.04,599.16,219.39,574.92,162.03,577.99C161.57,570.99,186.56,560.05,190.45,466.06C290.67,467.89,749.23,486.1,769.47,486.03"/>
<path stroke="none" fill="rgb(202,6,8)" d="M892.53,663.25C894.39,681.04,904.61,1012.57,911.62,1050.16C904.7,1051.2,892.09,1035.81,798.33,1043C793.23,976.55,779.71,671.5,778.24,658.13"/>
<path stroke="none" fill="rgb(202,6,8)" d="M830.15,445.79C838.48,429.97,1013.52,148.28,1028.64,113.17C1034.82,116.06,1036.5,135.72,1116.29,180.67C1083.66,238.78,925.92,500.19,919.72,512.13"/>
<path stroke="none" fill="rgb(0,0,0)" d="M1203.38,371.3C1203.38,368.78,1202.72,366.89,1201.43,365.63C1200.11,364.38,1198.14,363.74,1195.54,363.74C1192.99,363.74,1191.05,364.39,1189.65,365.68C1188.27,366.96,1187.58,368.85,1187.58,371.31L1187.58,481.36L1149.39,481.36C1146.29,481.36,1143.92,481.85,1142.3,482.83C1140.67,483.82,1139.85,485.25,1139.85,487.18C1139.85,489.09,1140.67,490.55,1142.3,491.58C1143.92,492.6,1146.29,493.1,1149.39,493.1L1241.56,493.1C1244.66,493.1,1247.03,492.63,1248.67,491.67C1250.29,490.7,1251.11,489.27,1251.11,487.36C1251.11,485.44,1250.28,483.99,1248.61,483.0C1246.93,482.02,1244.58,481.53,1241.56,481.53L1203.38,481.53L1203.38,371.3"/>
<path stroke="none" fill="rgb(0,0,0)" d="M1276.88,428.17C1272.93,419.02,1269.71,409.71,1267.19,400.28C1264.67,390.84,1262.91,381.26,1261.89,371.55C1261.59,368.96,1260.68,367.06,1259.17,365.83C1257.65,364.6,1255.47,363.98,1252.6,363.98C1250.05,363.98,1248.07,364.58,1246.64,365.78C1245.2,366.98,1244.49,368.65,1244.49,370.8C1244.49,377.86,1246.88,388.91,1251.69,403.93C1256.46,418.95,1262.79,433.56,1270.62,447.75C1279.04,463.04,1286.52,474.56,1293.02,482.28C1299.52,489.98,1305.05,493.84,1309.63,493.84C1314.2,493.84,1319.7,490.08,1326.16,482.58C1332.63,475.09,1339.81,464.12,1347.7,449.69C1355.99,434.44,1362.7,419.05,1367.85,403.51C1373.0,387.96,1375.57,377.12,1375.57,370.99C1375.57,368.71,1374.83,366.97,1373.36,365.78C1371.89,364.57,1369.84,363.98,1367.22,363.98C1362.41,363.98,1359.4,367.65,1358.16,374.95C1357.23,380.3,1356.19,384.76,1355.03,388.33C1351.54,400.01,1342.57,409.58,1328.13,417.01C1313.71,424.45,1296.62,428.16,1276.88,428.16ZM1281.17,437.77C1292.64,437.46,1303.48,435.96,1313.75,433.22C1323.99,430.51,1334.59,426.3,1345.49,420.62C1341.71,431.3,1336.82,441.72,1330.82,451.88C1324.8,462.05,1317.82,471.76,1309.85,481.03C1304.98,476.11,1300.24,470.22,1295.68,463.37C1291.12,456.51,1286.28,447.98,1281.17,437.77"/>
<path stroke="none" fill="rgb(0,0,0)" d="M1508.71,474.77C1499.62,459.3,1491.04,446.96,1482.94,437.77C1474.83,428.57,1468.66,424,1464.39,424C1460.05,424,1453.76,428.67,1445.49,438.0C1437.24,447.34,1428.77,459.6,1420.09,474.77C1416.9,461.67,1414.4,446.95,1412.58,430.59C1410.77,414.24,1409.71,396.64,1409.39,377.76C1409.39,377.45,1409.36,377.02,1409.28,376.48C1409.04,367.98,1406.46,363.75,1401.55,363.75C1398.62,363.75,1396.58,364.47,1395.37,365.91C1394.18,367.36,1393.58,370.08,1393.58,374.08C1393.58,385.08,1394.07,396.45,1395.04,408.23C1396.01,420.01,1397.42,431.5,1399.28,442.68C1399.74,445.57,1400.35,449.58,1401.13,454.74C1405.22,480.81,1410.97,493.85,1418.31,493.85C1422.94,493.85,1427.29,489.81,1431.32,481.79C1433.41,477.79,1435.14,474.56,1436.53,472.1C1440.24,465.98,1444.43,459.94,1449.08,454.03C1453.72,448.14,1458.82,442.34,1464.39,436.62C1469.76,441.91,1474.74,447.51,1479.37,453.43C1483.97,459.37,1488.2,465.59,1492.0,472.09C1493.39,474.36,1495.06,477.41,1497.02,481.22C1501.28,489.64,1505.83,493.85,1510.63,493.85C1513.2,493.85,1515.08,493.55,1516.29,492.97C1517.5,492.38,1518.64,491.17,1519.71,489.33C1521.97,485.26,1525.13,470.79,1529.15,445.91C1529.37,444.24,1529.58,442.96,1529.74,442.03C1531.44,431.21,1532.79,419.62,1533.75,407.26C1534.73,394.9,1535.21,382.87,1535.21,371.12C1535.21,368.66,1534.55,366.81,1533.21,365.58C1531.88,364.36,1529.94,363.74,1527.36,363.74C1522.29,363.74,1519.63,367.83,1519.41,376C1519.41,376.74,1519.41,377.29,1519.41,377.67C1519.41,377.8,1519.41,377.91,1519.41,378.03C1518.55,412.9,1514.99,445.13,1508.71,474.77"/>
<path stroke="none" fill="rgb(0,0,0)" d="M1641.25,493.1C1651.64,493.1,1659.63,491.25,1665.21,487.57C1670.79,483.87,1673.57,478.66,1673.57,471.9C1673.57,461.84,1665.68,452.82,1649.89,444.91C1634.1,436.98,1611.1,430.51,1580.92,425.46L1580.92,371.14C1580.92,368.67,1580.23,366.82,1578.82,365.57C1577.41,364.35,1575.39,363.73,1572.74,363.73C1570.1,363.73,1568.12,364.35,1566.8,365.57C1565.47,366.82,1564.81,368.67,1564.81,371.14L1564.81,483.57C1564.81,487.7,1565.52,490.33,1566.96,491.44C1568.4,492.54,1572.4,493.1,1578.94,493.1L1641.25,493.1ZM1580.92,436.29C1603.74,439.79,1622.31,444.84,1636.61,451.46C1650.93,458.09,1658.09,464.65,1658.09,471.15C1658.09,474.58,1656.31,477.3,1652.74,479.3C1649.18,481.28,1644.23,482.27,1637.89,482.27L1580.92,482.27L1580.92,436.28"/>
<path stroke="none" fill="rgb(0,0,0)" d="M1783.03,376.53C1786.2,376.53,1788.59,376.02,1790.24,374.99C1791.91,373.97,1792.74,372.49,1792.74,370.58C1792.74,368.72,1791.91,367.28,1790.24,366.26C1788.59,365.22,1786.2,364.72,1783.03,364.72L1709.55,364.72C1703.25,364.72,1699.36,365.28,1697.88,366.44C1696.4,367.58,1695.66,369.92,1695.66,373.45L1695.66,483.57C1695.66,487.7,1696.38,490.33,1697.82,491.44C1699.26,492.54,1703.25,493.1,1709.79,493.1L1782.57,493.1C1785.71,493.1,1788.1,492.63,1789.67,491.67C1791.25,490.7,1792.04,489.27,1792.04,487.36C1792.04,485.44,1791.24,483.99,1789.61,483.0C1787.99,482.02,1785.63,481.53,1782.57,481.53L1711.79,481.53L1711.79,459.4L1780.49,459.4C1783.48,459.4,1785.81,458.89,1787.42,457.86C1789.07,456.84,1789.86,455.4,1789.86,453.54C1789.86,451.61,1789.07,450.14,1787.42,449.13C1785.81,448.1,1783.48,447.59,1780.49,447.59L1711.79,447.59L1711.79,376.52L1783.03,376.52"/>
<path stroke="none" fill="rgb(0,0,0)" d="M1911.29,439.91C1920.04,434.24,1927.21,427.74,1932.75,420.37C1938.3,413.02,1942.81,403.96,1946.28,393.19C1947.77,388.46,1948.93,384.12,1949.79,380.22C1950.63,376.32,1951.05,373.21,1951.05,370.93C1951.05,368.6,1950.4,366.81,1949.03,365.58C1947.66,364.36,1945.77,363.74,1943.36,363.74C1938.38,363.74,1935.36,367.43,1934.26,374.82C1933.57,380.11,1932.69,384.53,1931.7,388.12C1926.42,406.46,1915.94,420.87,1900.26,431.37C1884.54,441.85,1865.65,447.1,1843.55,447.1C1842.93,447.1,1841.96,447.08,1840.59,447.02C1839.25,446.95,1838.25,446.92,1837.64,446.92L1837.64,371.11C1837.64,368.65,1836.93,366.8,1835.53,365.57C1834.14,364.35,1832.11,363.73,1829.46,363.73C1826.8,363.73,1824.82,364.35,1823.5,365.57C1822.19,366.8,1821.52,368.65,1821.52,371.11L1821.52,483.57C1821.52,487.7,1822.23,490.33,1823.68,491.44C1825.11,492.54,1829.11,493.1,1835.64,493.1L1895.24,493.1C1909.4,493.1,1920.06,491.12,1927.25,487.13C1934.44,483.17,1938.04,477.33,1938.04,469.64C1938.04,464.6,1936.09,459.88,1932.26,455.52C1928.38,451.13,1921.41,445.95,1911.29,439.91ZM1891.18,482.28L1837.64,482.28L1837.64,457.7L1839.48,457.7C1851.9,457.7,1863.03,456.73,1872.84,454.83C1882.64,452.93,1891.62,449.99,1899.79,446.01C1906.68,449.39,1911.99,453.02,1915.72,456.89C1919.46,460.77,1921.28,464.56,1921.28,468.24C1921.28,472.91,1918.78,476.43,1913.74,478.77C1908.69,481.1,1901.16,482.27,1891.18,482.27"/>
<path stroke="none" fill="rgb(0,0,0)" d="M2059.27,376.53C2062.43,376.53,2064.83,376.02,2066.5,374.99C2068.15,373.97,2068.98,372.49,2068.98,370.58C2068.98,368.72,2068.15,367.28,2066.5,366.26C2064.83,365.22,2062.43,364.72,2059.27,364.72L1985.81,364.72C1979.49,364.72,1975.61,365.28,1974.12,366.44C1972.63,367.58,1971.89,369.92,1971.89,373.45L1971.89,483.57C1971.89,487.7,1972.61,490.33,1974.07,491.44C1975.51,492.54,1979.49,493.1,1986.04,493.1L2058.81,493.1C2061.95,493.1,2064.31,492.63,2065.91,491.67C2067.5,490.7,2068.27,489.27,2068.27,487.36C2068.27,485.44,2067.47,483.99,2065.87,483.0C2064.23,482.02,2061.87,481.53,2058.81,481.53L1988.0,481.53L1988.0,459.4L2056.72,459.4C2059.73,459.4,2062.05,458.89,2063.68,457.86C2065.31,456.84,2066.1,455.4,2066.1,453.54C2066.1,451.61,2065.31,450.14,2063.68,449.13C2062.05,448.1,2059.73,447.59,2056.72,447.59L1988.0,447.59L1988.0,376.52L2059.27,376.52"/>
<path stroke="none" fill="rgb(0,0,0)" d="M2257.94,439.91C2266.71,434.24,2273.86,427.74,2279.4,420.37C2284.96,413.02,2289.47,403.96,2292.95,393.19C2294.41,388.46,2295.59,384.12,2296.44,380.22C2297.29,376.32,2297.72,373.21,2297.72,370.93C2297.72,368.6,2297.04,366.81,2295.69,365.58C2294.3,364.36,2292.45,363.74,2290.02,363.74C2285.02,363.74,2282.02,367.43,2280.92,374.82C2280.22,380.11,2279.36,384.53,2278.35,388.12C2273.09,406.46,2262.6,420.87,2246.9,431.37C2231.21,441.85,2212.31,447.1,2190.21,447.1C2189.59,447.1,2188.62,447.08,2187.26,447.02C2185.9,446.95,2184.91,446.92,2184.31,446.92L2184.31,371.11C2184.31,368.65,2183.59,366.8,2182.2,365.57C2180.79,364.35,2178.76,363.73,2176.12,363.73C2173.46,363.73,2171.49,364.35,2170.16,365.57C2168.85,366.8,2168.2,368.65,2168.2,371.11L2168.2,483.57C2168.2,487.7,2168.91,490.33,2170.34,491.44C2171.77,492.54,2175.76,493.1,2182.32,493.1L2241.92,493.1C2256.06,493.1,2266.73,491.12,2273.93,487.13C2281.1,483.17,2284.71,477.33,2284.71,469.64C2284.71,464.6,2282.77,459.88,2278.91,455.52C2275.06,451.13,2268.06,445.95,2257.94,439.91ZM2237.84,482.28L2184.31,482.28L2184.31,457.7L2186.16,457.7C2198.58,457.7,2209.7,456.73,2219.5,454.83C2229.3,452.93,2238.3,449.99,2246.44,446.01C2253.36,449.39,2258.67,453.02,2262.39,456.89C2266.12,460.77,2267.96,464.56,2267.96,468.24C2267.96,472.91,2265.46,476.43,2260.4,478.77C2255.37,481.1,2247.84,482.27,2237.84,482.27"/>
<path stroke="none" fill="rgb(0,0,0)" d="M2405.92,376.53C2409.08,376.53,2411.49,376.02,2413.15,374.99C2414.81,373.97,2415.64,372.49,2415.64,370.58C2415.64,368.72,2414.81,367.28,2413.15,366.26C2411.49,365.22,2409.08,364.72,2405.92,364.72L2332.48,364.72C2326.16,364.72,2322.25,365.28,2320.79,366.44C2319.32,367.58,2318.58,369.92,2318.58,373.45L2318.58,483.57C2318.58,487.7,2319.29,490.33,2320.73,491.44C2322.16,492.54,2326.16,493.1,2332.68,493.1L2405.46,493.1C2408.61,493.1,2410.98,492.63,2412.55,491.67C2414.15,490.7,2414.93,489.27,2414.93,487.36C2414.93,485.44,2414.14,483.99,2412.5,483.0C2410.88,482.02,2408.54,481.53,2405.46,481.53L2334.69,481.53L2334.69,459.4L2403.36,459.4C2406.39,459.4,2408.7,458.89,2410.32,457.86C2411.96,456.84,2412.76,455.4,2412.76,453.54C2412.76,451.61,2411.96,450.14,2410.32,449.13C2408.7,448.1,2406.39,447.59,2403.36,447.59L2334.69,447.59L2334.69,376.52L2405.92,376.52"/>
<path stroke="none" fill="rgb(0,0,0)" d="M2554.43,374.6L2554.43,447.36L2517.89,447.36C2514.84,447.36,2512.51,447.85,2510.96,448.85C2509.37,449.83,2508.55,451.3,2508.55,453.23C2508.55,455.2,2509.37,456.7,2510.96,457.68C2512.51,458.68,2514.84,459.17,2517.89,459.17L2556.47,459.17C2562.79,459.17,2566.69,458.58,2568.1,457.45C2569.51,456.31,2570.24,453.95,2570.24,450.44L2570.24,373.4C2570.24,369.0,2569.17,366.13,2567.02,364.77C2564.9,363.44,2561.07,362.76,2555.49,362.76C2541.1,362.76,2528.38,363.65,2517.33,365.44C2506.32,367.22,2496.51,369.97,2487.93,373.66C2471.65,380.75,2459,390.08,2449.94,401.65C2440.88,413.23,2436.36,425.86,2436.36,439.52C2436.36,448.51,2438.58,456.94,2443.04,464.8C2447.5,472.65,2453.58,478.91,2461.34,483.59C2466.98,487.04,2473.88,489.48,2482.07,490.94C2490.22,492.39,2502.83,493.11,2519.87,493.11L2556.47,493.11C2559.44,493.11,2561.7,492.59,2563.25,491.56C2564.8,490.52,2565.59,489.02,2565.59,487.07C2565.59,485.24,2564.78,483.83,2563.19,482.81C2561.59,481.81,2559.36,481.31,2556.47,481.31L2511.02,481.31C2490.9,481.31,2476.33,478.01,2467.28,471.45C2458.24,464.87,2453.7,454.31,2453.7,439.76C2453.7,420.92,2462.57,405.32,2480.27,392.92C2497.96,380.51,2520.67,374.33,2548.38,374.33C2549.09,374.33,2550.09,374.37,2551.41,374.47C2552.74,374.56,2553.72,374.61,2554.43,374.61"/>
<path stroke="none" fill="rgb(0,0,0)" d="M2615.26,371.3C2615.26,368.78,2614.61,366.89,2613.34,365.63C2612.03,364.38,2610.06,363.74,2607.44,363.74C2604.83,363.74,2602.85,364.39,2601.5,365.68C2600.17,366.96,2599.47,368.85,2599.47,371.31L2599.47,486.47C2599.47,488.87,2600.17,490.7,2601.5,491.96C2602.85,493.21,2604.83,493.85,2607.44,493.85C2610.06,493.85,2612.03,493.23,2613.34,492.0C2614.61,490.77,2615.26,488.93,2615.26,486.46L2615.26,371.3"/>
<path stroke="none" fill="rgb(0,0,0)" d="M2716.87,494.58C2738.09,494.58,2755.73,488.43,2769.69,476.14C2783.69,463.83,2790.71,448.04,2790.71,428.78C2790.71,409.64,2783.71,393.94,2769.73,381.68C2755.82,369.39,2738.17,363.26,2716.87,363.26C2695.24,363.26,2677.45,369.34,2663.5,381.51C2649.55,393.7,2642.53,409.46,2642.53,428.78C2642.53,447.98,2649.6,463.75,2663.73,476.07C2677.82,488.41,2695.52,494.58,2716.87,494.58ZM2716.85,483.51C2699.97,483.51,2686.3,478.51,2675.89,468.52C2665.44,458.5,2660.22,445.27,2660.22,428.83C2660.22,412.5,2665.44,399.33,2675.89,389.32C2686.3,379.32,2699.97,374.32,2716.85,374.32C2733.7,374.32,2747.32,379.3,2757.71,389.27C2768.14,399.24,2773.33,412.43,2773.33,428.82C2773.33,445.33,2768.14,458.57,2757.71,468.54C2747.32,478.53,2733.7,483.51,2716.85,483.51"/>
<path stroke="none" fill="rgb(0,0,0)" d="M2833.23,371.32C2833.23,368.78,2832.55,366.89,2831.18,365.63C2829.83,364.38,2827.85,363.74,2825.29,363.74C2822.62,363.74,2820.63,364.39,2819.21,365.68C2817.8,366.96,2817.1,368.85,2817.1,371.33L2817.1,486.48C2817.1,489.11,2817.83,491.0,2819.27,492.13C2820.69,493.27,2823.06,493.84,2826.4,493.84C2830.94,493.84,2836.25,491.22,2842.26,486.01C2844.59,483.98,2846.45,482.46,2847.86,481.43C2859.58,472.27,2870.29,465.58,2879.96,461.32C2889.62,457.05,2899.9,454.37,2910.71,453.26L2910.71,486.48C2910.71,488.93,2911.36,490.77,2912.67,492.0C2914.03,493.23,2916,493.85,2918.65,493.85C2921.3,493.85,2923.3,493.21,2924.72,491.96C2926.13,490.7,2926.79,488.87,2926.79,486.49L2926.79,371.34C2926.79,368.87,2926.13,366.98,2924.72,365.69C2923.3,364.4,2921.3,363.75,2918.65,363.75C2916.06,363.75,2914.11,364.39,2912.73,365.64C2911.38,366.9,2910.71,368.8,2910.71,371.33L2910.71,441.71C2896.66,443.06,2883.49,446.53,2871.22,452.1C2858.93,457.68,2846.28,466.01,2833.23,477.09L2833.23,371.33"/>
<path stroke="none" fill="rgb(0,0,0)" d="M3119.11,376.53C3122.27,376.53,3124.68,376.02,3126.34,374.99C3128,373.97,3128.83,372.49,3128.83,370.58C3128.83,368.72,3128,367.28,3126.34,366.26C3124.68,365.22,3122.27,364.72,3119.11,364.72L3045.64,364.72C3039.35,364.72,3035.45,365.28,3033.98,366.44C3032.5,367.58,3031.75,369.92,3031.75,373.45L3031.75,483.57C3031.75,487.7,3032.48,490.33,3033.91,491.44C3035.38,492.54,3039.35,493.1,3045.88,493.1L3118.67,493.1C3121.81,493.1,3124.17,492.63,3125.76,491.67C3127.35,490.7,3128.15,489.27,3128.15,487.36C3128.15,485.44,3127.33,483.99,3125.72,483.0C3124.09,482.02,3121.73,481.53,3118.67,481.53L3047.88,481.53L3047.88,459.4L3116.59,459.4C3119.6,459.4,3121.88,458.89,3123.54,457.86C3125.15,456.84,3125.95,455.4,3125.95,453.54C3125.95,451.61,3125.15,450.14,3123.54,449.13C3121.88,448.1,3119.6,447.59,3116.59,447.59L3047.88,447.59L3047.88,376.52L3119.11,376.52"/>
<path stroke="none" fill="rgb(0,0,0)" d="M3216.02,446.45C3230.41,437.1,3242.03,425.41,3250.77,411.35C3259.53,397.31,3263.92,383.84,3263.92,370.93C3263.92,368.6,3263.25,366.81,3261.93,365.58C3260.62,364.36,3258.71,363.74,3256.23,363.74C3251.25,363.74,3248.23,367.62,3247.03,375.36C3246.4,379.11,3245.83,382.22,3245.27,384.68C3243.02,395.08,3238.62,404.71,3232.08,413.63C3225.52,422.55,3216.74,430.9,3205.74,438.71C3194.46,431.02,3185.55,422.72,3178.96,413.8C3172.35,404.88,3167.96,395.19,3165.7,384.67C3165.16,382.22,3164.6,379.1,3164.08,375.35C3162.82,367.61,3159.73,363.73,3154.75,363.73C3152.29,363.73,3150.37,364.35,3149.05,365.57C3147.73,366.8,3147.08,368.59,3147.08,370.92C3147.08,383.77,3151.43,397.23,3160.23,411.34C3168.99,425.46,3180.58,437.15,3195.0,446.44C3179.45,456.08,3168.34,463.99,3161.7,470.17C3155.04,476.34,3151.72,481.72,3151.72,486.26C3151.72,488.59,3152.53,490.44,3154.1,491.79C3155.7,493.15,3157.85,493.83,3160.59,493.83C3164.25,493.83,3166.84,491.43,3168.4,486.63C3168.96,485.04,3169.37,483.84,3169.66,483.04C3171.24,479.23,3174.31,475.38,3178.92,471.48C3183.48,467.58,3192.36,461.75,3205.51,454.01C3217.84,461.26,3226.53,466.95,3231.52,471.06C3236.47,475.18,3239.73,479.1,3241.31,482.84C3241.64,483.65,3242.07,484.76,3242.57,486.17C3244.28,491.27,3246.99,493.83,3250.62,493.83C3253.36,493.83,3255.45,493.16,3257,491.84C3258.5,490.52,3259.24,488.66,3259.24,486.26C3259.24,481.72,3255.86,476.31,3249.12,470.08C3242.35,463.84,3231.32,455.96,3216.02,446.44"/>
<path stroke="none" fill="rgb(0,0,0)" d="M3348.11,481.3C3327.88,481.3,3313.24,478,3304.13,471.43C3295.02,464.83,3290.48,454.3,3290.48,439.85C3290.48,421.13,3299.27,405.67,3316.86,393.41C3334.43,381.16,3357.17,375.05,3384.98,375.05C3390.61,375.05,3394.26,374.6,3395.87,373.73C3397.52,372.84,3398.32,371.33,3398.32,369.2C3398.32,367.12,3397.43,365.61,3395.6,364.66C3393.78,363.73,3390.95,363.25,3387.17,363.25C3353.65,363.25,3326.29,370.44,3305.14,384.86C3284.0,399.26,3273.43,417.54,3273.43,439.64C3273.43,448.62,3275.58,456.98,3279.88,464.72C3284.18,472.46,3290.13,478.63,3297.69,483.24C3303.45,486.81,3310.4,489.34,3318.54,490.85C3326.71,492.35,3339.52,493.11,3356.95,493.11L3385.52,493.11C3388.54,493.11,3390.85,492.58,3392.5,491.51C3394.13,490.43,3394.93,488.96,3394.93,487.07C3394.93,485.24,3394.11,483.83,3392.44,482.81C3390.75,481.81,3388.44,481.31,3385.52,481.31L3348.11,481.31"/>
<path stroke="none" fill="rgb(0,0,0)" d="M3436.36,371.32C3436.36,368.85,3435.69,367,3434.26,365.76C3432.88,364.52,3430.84,363.92,3428.19,363.92C3425.53,363.92,3423.57,364.53,3422.24,365.76C3420.91,367,3420.25,368.85,3420.25,371.32L3420.25,486.46C3420.25,488.93,3420.91,490.77,3422.24,492.0C3423.57,493.23,3425.53,493.85,3428.19,493.85C3430.84,493.85,3432.88,493.21,3434.26,491.96C3435.69,490.7,3436.36,488.87,3436.36,486.47L3436.36,458.93L3511.37,458.93L3511.37,486.47C3511.37,488.94,3512.04,490.78,3513.33,492.01C3514.65,493.24,3516.58,493.86,3519.11,493.86C3521.78,493.86,3523.81,493.22,3525.16,491.97C3526.5,490.71,3527.16,488.88,3527.16,486.48L3527.16,371.34C3527.16,368.87,3526.48,366.98,3525.1,365.69C3523.71,364.4,3521.7,363.75,3519.11,363.75C3516.58,363.75,3514.65,364.39,3513.33,365.64C3512.04,366.9,3511.37,368.8,3511.37,371.33L3511.37,448.11L3436.36,448.11L3436.36,371.33"/>
<path stroke="none" fill="rgb(0,0,0)" d="M3581.96,428.17C3578.01,419.02,3574.78,409.71,3572.27,400.28C3569.75,390.84,3567.99,381.26,3566.98,371.55C3566.66,368.96,3565.77,367.06,3564.25,365.83C3562.75,364.6,3560.54,363.98,3557.7,363.98C3555.13,363.98,3553.15,364.58,3551.71,365.78C3550.29,366.98,3549.56,368.65,3549.56,370.8C3549.56,377.86,3551.97,388.91,3556.77,403.93C3561.56,418.95,3567.88,433.56,3575.71,447.75C3584.1,463.04,3591.58,474.56,3598.09,482.28C3604.6,489.98,3610.11,493.84,3614.7,493.84C3619.25,493.84,3624.76,490.08,3631.25,482.58C3637.72,475.09,3644.9,464.12,3652.77,449.69C3661.07,434.44,3667.78,419.05,3672.92,403.51C3678.08,387.96,3680.65,377.12,3680.65,370.99C3680.65,368.71,3679.89,366.97,3678.46,365.78C3676.98,364.57,3674.92,363.98,3672.29,363.98C3667.48,363.98,3664.49,367.65,3663.26,374.95C3662.32,380.3,3661.25,384.76,3660.09,388.33C3656.62,400.01,3647.64,409.58,3633.22,417.01C3618.76,424.45,3601.71,428.16,3581.96,428.16ZM3586.25,437.77C3597.71,437.46,3608.57,435.96,3618.8,433.22C3629.07,430.51,3639.64,426.3,3650.57,420.62C3646.79,431.3,3641.89,441.72,3635.88,451.88C3629.89,462.05,3622.9,471.76,3614.95,481.03C3610.05,476.11,3605.32,470.22,3600.77,463.37C3596.21,456.51,3591.36,447.98,3586.25,437.77"/>
<path stroke="none" fill="rgb(0,0,0)" d="M3719.12,371.32C3719.12,368.78,3718.45,366.89,3717.08,365.63C3715.71,364.38,3713.74,363.74,3711.18,363.74C3708.54,363.74,3706.5,364.39,3705.09,365.68C3703.71,366.96,3703.0,368.85,3703.0,371.33L3703.0,486.48C3703.0,489.11,3703.73,491.0,3705.16,492.13C3706.56,493.27,3708.95,493.84,3712.27,493.84C3716.85,493.84,3722.15,491.22,3728.15,486.01C3730.49,483.98,3732.33,482.46,3733.75,481.43C3745.47,472.27,3756.2,465.58,3765.85,461.32C3775.52,457.05,3785.78,454.37,3796.6,453.26L3796.6,486.48C3796.6,488.93,3797.26,490.77,3798.57,492.0C3799.91,493.23,3801.88,493.85,3804.53,493.85C3807.17,493.85,3809.2,493.21,3810.63,491.96C3812.02,490.7,3812.71,488.87,3812.71,486.49L3812.71,371.34C3812.71,368.87,3812.02,366.98,3810.63,365.69C3809.2,364.4,3807.17,363.75,3804.53,363.75C3801.96,363.75,3800,364.39,3798.65,365.64C3797.28,366.9,3796.6,368.8,3796.6,371.33L3796.6,441.71C3782.51,443.06,3769.39,446.53,3757.09,452.1C3744.84,457.68,3732.17,466.01,3719.12,477.09L3719.12,371.33"/>
<path stroke="none" fill="rgb(0,0,0)" d="M3957.22,374.6L3957.22,447.36L3920.68,447.36C3917.65,447.36,3915.35,447.85,3913.74,448.85C3912.17,449.83,3911.36,451.3,3911.36,453.23C3911.36,455.2,3912.17,456.7,3913.74,457.68C3915.35,458.68,3917.65,459.17,3920.68,459.17L3959.27,459.17C3965.59,459.17,3969.48,458.58,3970.9,457.45C3972.33,456.31,3973.02,453.95,3973.02,450.44L3973.02,373.4C3973.02,369.0,3971.97,366.13,3969.86,364.77C3967.72,363.44,3963.86,362.76,3958.31,362.76C3943.88,362.76,3931.18,363.65,3920.15,365.44C3909.13,367.22,3899.31,369.97,3890.72,373.66C3874.45,380.75,3861.8,390.08,3852.75,401.65C3843.72,413.23,3839.17,425.86,3839.17,439.52C3839.17,448.51,3841.39,456.94,3845.85,464.8C3850.26,472.65,3856.41,478.91,3864.12,483.59C3869.78,487.04,3876.69,489.48,3884.87,490.94C3893.03,492.39,3905.64,493.11,3922.67,493.11L3959.27,493.11C3962.23,493.11,3964.5,492.59,3966.08,491.56C3967.61,490.52,3968.38,489.02,3968.38,487.07C3968.38,485.24,3967.59,483.83,3965.99,482.81C3964.4,481.81,3962.15,481.31,3959.27,481.31L3913.79,481.31C3893.7,481.31,3879.16,478.01,3870.08,471.45C3861.06,464.87,3856.53,454.31,3856.53,439.76C3856.53,420.92,3865.4,405.32,3883.05,392.92C3900.75,380.51,3923.44,374.33,3951.2,374.33C3951.9,374.33,3952.9,374.37,3954.23,374.47C3955.54,374.56,3956.53,374.61,3957.22,374.61"/>
<path stroke="none" fill="rgb(0,0,0)" d="M4089.02,376.53C4092.21,376.53,4094.61,376.02,4096.27,374.99C4097.92,373.97,4098.75,372.49,4098.75,370.58C4098.75,368.72,4097.92,367.28,4096.27,366.26C4094.61,365.22,4092.21,364.72,4089.02,364.72L4015.57,364.72C4009.26,364.72,4005.39,365.28,4003.88,366.44C4002.42,367.58,4001.68,369.92,4001.68,373.45L4001.68,483.57C4001.68,487.7,4002.4,490.33,4003.84,491.44C4005.29,492.54,4009.26,493.1,4015.81,493.1L4088.57,493.1C4091.73,493.1,4094.12,492.63,4095.67,491.67C4097.25,490.7,4098.03,489.27,4098.03,487.36C4098.03,485.44,4097.23,483.99,4095.6,483.0C4093.99,482.02,4091.66,481.53,4088.57,481.53L4017.8,481.53L4017.8,459.4L4086.47,459.4C4089.49,459.4,4091.81,458.89,4093.44,457.86C4095.06,456.84,4095.87,455.4,4095.87,453.54C4095.87,451.61,4095.06,450.14,4093.44,449.13C4091.81,448.1,4089.49,447.59,4086.47,447.59L4017.8,447.59L4017.8,376.52L4089.02,376.52"/>
<path stroke="none" fill="rgb(0,0,0)" d="M1460.71,610.08C1460.71,601.19,1457.44,594.53,1450.89,590.09C1444.34,585.66,1434.55,583.43,1421.51,583.43C1408.81,583.43,1399.02,585.71,1392.1,590.26C1385.17,594.8,1381.71,601.41,1381.71,610.08L1381.71,997.27L1190.73,997.27C1175.19,997.27,1163.35,998.99,1155.2,1002.47C1147.04,1005.95,1142.99,1011.07,1142.99,1017.81C1142.99,1024.55,1147.04,1029.71,1155.2,1033.29C1163.35,1036.87,1175.19,1038.68,1190.73,1038.68L1651.7,1038.68C1667.21,1038.68,1679.04,1036.99,1687.2,1033.62C1695.35,1030.24,1699.43,1025.21,1699.43,1018.46C1699.43,1011.72,1695.25,1006.6,1686.9,1003.12C1678.55,999.64,1666.83,997.92,1651.7,997.92L1460.71,997.92L1460.71,610.09"/>
<path stroke="none" fill="rgb(0,0,0)" d="M2261.9,853.16C2305.81,833.5,2341.63,810.88,2369.42,785.34C2397.21,759.8,2419.85,728.34,2437.33,690.95C2444.71,674.47,2450.51,659.45,2454.81,645.88C2459.09,632.31,2461.24,621.56,2461.24,613.66C2461.24,605.54,2457.8,599.34,2450.98,595.08C2444.13,590.82,2434.65,588.67,2422.58,588.67C2397.58,588.67,2382.35,601.48,2376.92,627.13C2373.4,645.51,2369.11,660.91,2364.03,673.31C2337.72,737,2285.38,787.05,2207.02,823.49C2128.66,859.95,2034.32,878.17,1924.09,878.17C1920.96,878.17,1916.02,878.04,1909.24,877.83C1902.5,877.62,1897.56,877.52,1894.48,877.52L1894.48,614.34C1894.48,605.79,1890.96,599.37,1883.91,595.09C1876.9,590.83,1866.78,588.68,1853.52,588.68C1840.28,588.68,1830.3,590.83,1823.68,595.09C1817.08,599.37,1813.75,605.78,1813.75,614.34L1813.75,1004.73C1813.75,1018.79,1817.35,1027.71,1824.58,1031.48C1831.76,1035.24,1851.74,1037.15,1884.52,1037.15L2181.8,1037.15C2252.58,1037.15,2305.98,1030.28,2341.98,1016.55C2377.97,1002.8,2395.96,982.63,2395.96,956.02C2395.96,938.55,2386.27,922.26,2366.94,907.15C2347.58,892.04,2312.58,874.05,2261.9,853.18ZM2161.49,1000.31L1894.48,1000.31L1894.48,914.97L1903.75,914.97C1965.67,914.97,2021.12,911.65,2070.06,905.03C2118.99,898.41,2163.77,888.17,2204.42,874.31C2238.85,886.05,2265.36,898.65,2283.93,912.12C2302.5,925.59,2311.82,938.74,2311.82,951.57C2311.82,967.81,2299.24,980.0,2274.09,988.12C2248.91,996.23,2211.41,1000.31,2161.49,1000.31"/>
<g stroke-width="10" stroke-linecap="square" stroke-miterlimit="1">
<path d="M2261.9,853.16C2305.81,833.5,2341.63,810.88,2369.42,785.34C2397.21,759.8,2419.85,728.34,2437.33,690.95C2444.71,674.47,2450.51,659.45,2454.81,645.88C2459.09,632.31,2461.24,621.56,2461.24,613.66C2461.24,605.54,2457.8,599.34,2450.98,595.08C2444.13,590.82,2434.65,588.67,2422.58,588.67C2397.58,588.67,2382.35,601.48,2376.92,627.13C2373.4,645.51,2369.11,660.91,2364.03,673.31C2337.72,737,2285.38,787.05,2207.02,823.49C2128.66,859.95,2034.32,878.17,1924.09,878.17C1920.96,878.17,1916.02,878.04,1909.24,877.83C1902.5,877.62,1897.56,877.52,1894.48,877.52L1894.48,614.34C1894.48,605.79,1890.96,599.37,1883.91,595.09C1876.9,590.83,1866.78,588.68,1853.52,588.68C1840.28,588.68,1830.3,590.83,1823.68,595.09C1817.08,599.37,1813.75,605.78,1813.75,614.34L1813.75,1004.73C1813.75,1018.79,1817.35,1027.71,1824.58,1031.48C1831.76,1035.24,1851.74,1037.15,1884.52,1037.15L2181.8,1037.15C2252.58,1037.15,2305.98,1030.28,2341.98,1016.55C2377.97,1002.8,2395.96,982.63,2395.96,956.02C2395.96,938.55,2386.27,922.26,2366.94,907.15C2347.58,892.04,2312.58,874.05,2261.9,853.18ZM2161.49,1000.31L1894.48,1000.31L1894.48,914.97L1903.75,914.97C1965.67,914.97,2021.12,911.65,2070.06,905.03C2118.99,898.41,2163.77,888.17,2204.42,874.31C2238.85,886.05,2265.36,898.65,2283.93,912.12C2302.5,925.59,2311.82,938.74,2311.82,951.57C2311.82,967.81,2299.24,980.0,2274.09,988.12C2248.91,996.23,2211.41,1000.31,2161.49,1000.31Z"/>
<path stroke="none" fill="rgb(0,0,0)" d="M2997.61,628.79C3012.71,628.79,3024.19,627.01,3032.14,623.47C3040.03,619.93,3044.02,614.84,3044.02,608.19C3044.02,601.75,3040.03,596.75,3032.14,593.21C3024.19,589.67,3012.71,587.91,2997.61,587.91L2629.27,587.91C2597.65,587.91,2578.18,589.88,2570.76,593.87C2563.35,597.83,2559.64,605.93,2559.64,618.17L2559.64,1007.33C2559.64,1021.94,2563.26,1031.2,2570.46,1035.15C2577.67,1039.06,2597.65,1041.03,2630.42,1041.03L2995.29,1041.03C3010.37,1041.03,3021.67,1039.33,3029.19,1035.95C3036.75,1032.56,3040.54,1027.51,3040.54,1020.75C3040.54,1013.98,3036.66,1008.85,3028.94,1005.36C3021.21,1001.87,3009.98,1000.15,2995.29,1000.15L2640.37,1000.15L2640.37,921.79L2984.82,921.79C2999.94,921.79,3011.54,920.01,3019.7,916.47C3027.85,912.93,3031.95,907.96,3031.95,901.51C3031.95,894.85,3027.85,889.74,3019.7,886.2C3011.54,882.66,2999.94,880.9,2984.82,880.9L2640.37,880.9L2640.37,628.79L2997.61,628.79"/>
<path stroke="none" fill="rgb(0,0,0)" d="M3693.3,802.27C3749.6,736.86,3777.71,674.18,3777.62,614.17C3777.6,603.32,3773.32,595.04,3764.81,589.35C3756.29,583.65,3744.12,580.8,3728.14,580.83C3696.12,580.89,3676.41,598.91,3669.06,634.94C3665.1,652.38,3661.35,666.81,3657.89,678.26C3643.5,726.58,3618.75,771.82,3581.36,817.98C3542.6,865.87,3487.14,923.68,3364.35,979.97C3241.52,1036.27,3164.16,1047.98,3121.55,1076.75C3078.97,1105.51,3057.69,1130.52,3057.73,1151.7C3057.75,1162.53,3062.88,1171.06,3073.12,1177.36C3083.36,1183.62,3097.16,1186.76,3114.65,1186.72C3138.11,1186.68,3154.78,1175.49,3164.74,1153.19C3168.23,1145.78,3170.91,1140.21,3172.92,1136.5C3182.84,1118.72,3202.54,1100.77,3231.94,1082.59C3261.36,1064.4,3294.43,1049.72,3402.39,1001.07C3510.22,952.48,3636.99,867.66,3693.3,802.25"/>
<path stroke="none" fill="rgb(0,0,0)" d="M3470.16,903.9C3556.15,940.76,3593.26,955.36,3616.67,969.15C3640.13,982.94,3649.66,993.16,3657.62,1006.66C3659.22,1009.49,3661.39,1013.71,3664.16,1019.36C3672.11,1036.3,3698.25,1040.58,3716.91,1040.58C3730.83,1040.58,3741.84,1038.18,3749.97,1033.39C3758.1,1028.59,3762.18,1022.09,3762.18,1013.84C3762.18,997.74,3745.21,978.74,3711.26,956.91C3677.32,935.08,3615.68,926.27,3517.84,883.61C3419.98,840.96,3375.78,797.04,3344.84,760.66C3315.01,725.6,3295.23,691.2,3283.68,654.45C3280.95,645.75,3277.94,634.78,3274.77,621.52C3268.82,594.13,3253.12,580.43,3227.63,580.43C3214.94,580.43,3205.25,582.61,3198.45,586.95C3191.68,591.3,3188.32,597.61,3188.32,605.87C3188.32,651.5,3210.78,699.17,3255.69,748.86C3300.63,798.55,3384.25,867.07,3470.16,903.9"/>
<path stroke="none" fill="rgb(202,3,3)" d="M666.32,698.43C635.48,675.1,632.15,637.59,579.65,604.26C555.18,588.72,464,585.06,481.35,585.94C464.2,529.44,644.18,522.22,644.76,594.38"/>
<path stroke="none" fill="rgb(202,3,3)" d="M897.05,891.74C901.39,836.5,890.93,801.85,926.02,752.95C943.36,728.78,949.87,728.6,953.07,724.38C942.66,668.73,834.06,712.49,865.67,773.94"/>
<path stroke="none" fill="rgb(202,3,3)" d="M794.65,955.93C790.48,898.43,793.96,833.55,762.96,779.65C748.51,754.52,713.81,740.37,699.65,724.27C661.32,652.6,858.22,736.99,825.2,801.16"/>
<path stroke="none" fill="rgb(247,182,213)" d="M830.28,744.71C820.04,748.09,767.58,740.65,738.67,726.9C693.62,705.53,644.27,652.7,638.49,601.03C637.17,589.14,635.26,572.1,640.92,571.78C648.62,571.33,641.43,651.36,742.09,707.48C761.37,718.23,809.59,726.06,850.25,721.14"/>
<path stroke="none" fill="rgb(202,3,3)" d="M690.71,378.4C643.11,411.69,644.09,436.97,576.46,466.29C544.94,479.95,431.12,476.12,452.8,476.66C427.65,532.27,651.36,554.41,656.91,481.64"/>
<path stroke="none" fill="rgb(202,3,3)" d="M1030.44,522.27C1019.2,440.69,997.81,460.38,999.98,401.17C1001.11,370.48,1041.95,302.84,1034.78,316.33C1009.14,287.67,921.82,418.52,962.38,443.13"/>
<path stroke="none" fill="rgb(202,3,3)" d="M812.54,338.8C863.06,340.27,898.61,318.09,925.91,282.28C969.88,224.59,977.51,201.75,988.38,198.85C1026.83,197.48,972.21,355.73,928.56,374.33"/>
<path stroke="none" fill="rgb(202,3,3)" d="M302.8,470.76C279.04,469.42,254.27,469.28,240.86,463.88C232.43,460.49,223.8,446.44,220.46,442.26C200.63,448.15,225.55,495.12,247.66,482.19"/>
<path stroke="none" fill="rgb(202,3,3)" d="M213.92,616.54C224.89,604,224.45,595.16,240.18,583.64C247.52,578.27,275.88,579.05,281.19,578.42C306.15,574.84,221.75,554.13,221.05,579.73"/>
<path stroke="none" fill="rgb(202,3,3)" d="M789.68,871.36C788.65,895.13,788.83,919.9,783.61,933.39C780.33,941.86,766.39,950.69,762.26,954.07C768.41,973.82,815.05,948.29,801.84,926.35"/>
<path stroke="none" fill="rgb(202,3,3)" d="M943.18,953.86C932.44,942.89,920.01,941.38,907.59,927.45C901.8,920.95,898.39,896.04,897.64,891.31C893.48,869.04,872.84,944.69,899.93,945.04"/>
<path stroke="none" fill="rgb(202,3,3)" d="M1034.49,317.88C1057.27,286.25,1068.74,272.85,1084.72,263.31C1094.77,257.31,1118.01,256.5,1125.45,255.56C1132.09,234.46,1057.15,233.54,1057.54,260.28"/>
<path stroke="none" fill="rgb(202,3,3)" d="M963.32,134.1C964.95,155.06,973.51,164.15,974.39,190.08C974.8,202.18,972.49,219.82,954.46,244.48C931.37,283.7,1023.88,185.7,998.02,170.17"/>
</g>
</g>
</g>
</svg>
